<svg width="463" height="305" viewBox="0 0 463 305" fill="none" xmlns="http://www.w3.org/2000/svg">
<rect x="0.467773" y="45" width="66" height="52" fill="white"/>
<rect x="66.4678" y="45" width="66" height="52" fill="white"/>
<path d="M99.5845 75H98.4946V67.7754L96.3091 68.5781V67.5938L99.4146 66.4277H99.5845V75Z" fill="#172755"/>
<rect x="132.468" y="45" width="66" height="52" fill="white"/>
<path d="M167.612 75H162.022V74.2207L164.975 70.9395C165.413 70.4434 165.713 70.041 165.877 69.7324C166.045 69.4199 166.129 69.0977 166.129 68.7656C166.129 68.3203 165.995 67.9551 165.725 67.6699C165.456 67.3848 165.096 67.2422 164.647 67.2422C164.108 67.2422 163.688 67.3965 163.387 67.7051C163.09 68.0098 162.942 68.4355 162.942 68.9824H161.858C161.858 68.1973 162.11 67.5625 162.614 67.0781C163.122 66.5938 163.799 66.3516 164.647 66.3516C165.44 66.3516 166.067 66.5605 166.528 66.9785C166.989 67.3926 167.219 67.9453 167.219 68.6367C167.219 69.4766 166.684 70.4766 165.614 71.6367L163.329 74.1152H167.612V75Z" fill="#172755"/>
<rect x="198.468" y="45" width="66" height="52" fill="white"/>
<path d="M229.598 70.207H230.413C230.924 70.1992 231.327 70.0645 231.62 69.8027C231.913 69.541 232.059 69.1875 232.059 68.7422C232.059 67.7422 231.561 67.2422 230.565 67.2422C230.096 67.2422 229.721 67.377 229.44 67.6465C229.163 67.9121 229.024 68.2656 229.024 68.707H227.94C227.94 68.0312 228.186 67.4707 228.678 67.0254C229.174 66.5762 229.803 66.3516 230.565 66.3516C231.37 66.3516 232 66.5645 232.458 66.9902C232.915 67.416 233.143 68.0078 233.143 68.7656C233.143 69.1367 233.022 69.4961 232.78 69.8438C232.542 70.1914 232.215 70.4512 231.801 70.623C232.27 70.7715 232.631 71.0176 232.885 71.3613C233.143 71.7051 233.272 72.125 233.272 72.6211C233.272 73.3867 233.022 73.9941 232.522 74.4434C232.022 74.8926 231.372 75.1172 230.571 75.1172C229.77 75.1172 229.118 74.9004 228.614 74.4668C228.114 74.0332 227.864 73.4609 227.864 72.75H228.954C228.954 73.1992 229.1 73.5586 229.393 73.8281C229.686 74.0977 230.079 74.2324 230.571 74.2324C231.094 74.2324 231.495 74.0957 231.772 73.8223C232.049 73.5488 232.188 73.1562 232.188 72.6445C232.188 72.1484 232.036 71.7676 231.731 71.502C231.426 71.2363 230.987 71.0996 230.413 71.0918H229.598V70.207Z" fill="#172755"/>
<rect x="264.468" y="45" width="66" height="52" fill="white"/>
<path d="M298.598 72.1348H299.782V73.0195H298.598V75H297.508V73.0195H293.624V72.3809L297.444 66.4688H298.598V72.1348ZM294.854 72.1348H297.508V67.9512L297.379 68.1855L294.854 72.1348Z" fill="#172755"/>
<rect x="330.468" y="45" width="66" height="52" fill="white"/>
<path d="M360.52 70.7227L360.954 66.4688H365.325V67.4707H361.874L361.616 69.7969C362.034 69.5508 362.508 69.4277 363.04 69.4277C363.817 69.4277 364.434 69.6855 364.891 70.2012C365.348 70.7129 365.577 71.4062 365.577 72.2812C365.577 73.1602 365.338 73.8535 364.862 74.3613C364.389 74.8652 363.727 75.1172 362.875 75.1172C362.122 75.1172 361.506 74.9082 361.03 74.4902C360.553 74.0723 360.282 73.4941 360.215 72.7559H361.241C361.307 73.2441 361.481 73.6133 361.762 73.8633C362.043 74.1094 362.415 74.2324 362.875 74.2324C363.379 74.2324 363.774 74.0605 364.059 73.7168C364.348 73.373 364.493 72.8984 364.493 72.293C364.493 71.7227 364.336 71.2656 364.024 70.9219C363.715 70.5742 363.303 70.4004 362.788 70.4004C362.315 70.4004 361.944 70.5039 361.674 70.7109L361.387 70.9453L360.52 70.7227Z" fill="#172755"/>
<rect x="396.468" y="45" width="66" height="52" fill="white"/>
<path d="M430.276 66.4629V67.3828H430.077C429.233 67.3984 428.561 67.6484 428.061 68.1328C427.561 68.6172 427.272 69.2988 427.194 70.1777C427.643 69.6621 428.256 69.4043 429.034 69.4043C429.776 69.4043 430.368 69.666 430.809 70.1895C431.254 70.7129 431.477 71.3887 431.477 72.2168C431.477 73.0957 431.237 73.7988 430.756 74.3262C430.28 74.8535 429.639 75.1172 428.834 75.1172C428.018 75.1172 427.356 74.8047 426.848 74.1797C426.34 73.5508 426.086 72.7422 426.086 71.7539V71.3379C426.086 69.7676 426.42 68.5684 427.088 67.7402C427.76 66.9082 428.758 66.4824 430.083 66.4629H430.276ZM428.852 70.3066C428.481 70.3066 428.139 70.418 427.827 70.6406C427.514 70.8633 427.297 71.1426 427.176 71.4785V71.877C427.176 72.5801 427.334 73.1465 427.651 73.5762C427.967 74.0059 428.362 74.2207 428.834 74.2207C429.323 74.2207 429.706 74.041 429.983 73.6816C430.264 73.3223 430.405 72.8516 430.405 72.2695C430.405 71.6836 430.262 71.2109 429.977 70.8516C429.696 70.4883 429.321 70.3066 428.852 70.3066Z" fill="#172755"/>
<rect x="0.467773" y="97" width="66" height="52" fill="white"/>
<path d="M35.5298 119.078L31.9966 127H30.8599L34.3813 119.359H29.7642V118.469H35.5298V119.078Z" fill="#172755"/>
<rect x="66.4678" y="97" width="66" height="52" fill="white"/>
<circle cx="98.9678" cy="122.5" r="19.5" fill="#0088F0"/>
<path d="M101.196 120.695C101.196 121.121 101.083 121.5 100.856 121.832C100.633 122.164 100.331 122.424 99.9478 122.611C100.393 122.803 100.745 123.082 101.002 123.449C101.264 123.816 101.395 124.232 101.395 124.697C101.395 125.436 101.145 126.023 100.645 126.461C100.149 126.898 99.4946 127.117 98.6821 127.117C97.8618 127.117 97.2036 126.898 96.7075 126.461C96.2153 126.02 95.9692 125.432 95.9692 124.697C95.9692 124.236 96.0942 123.82 96.3442 123.449C96.5981 123.078 96.9478 122.797 97.3931 122.605C97.0142 122.418 96.7153 122.158 96.4966 121.826C96.2778 121.494 96.1685 121.117 96.1685 120.695C96.1685 119.977 96.3989 119.406 96.8599 118.984C97.3208 118.562 97.9282 118.352 98.6821 118.352C99.4321 118.352 100.038 118.562 100.499 118.984C100.963 119.406 101.196 119.977 101.196 120.695ZM100.311 124.674C100.311 124.197 100.159 123.809 99.854 123.508C99.5532 123.207 99.1587 123.057 98.6704 123.057C98.1821 123.057 97.7896 123.205 97.4927 123.502C97.1997 123.799 97.0532 124.189 97.0532 124.674C97.0532 125.158 97.1958 125.539 97.481 125.816C97.77 126.094 98.1704 126.232 98.6821 126.232C99.1899 126.232 99.5884 126.094 99.8774 125.816C100.167 125.535 100.311 125.154 100.311 124.674ZM98.6821 119.242C98.2563 119.242 97.9106 119.375 97.645 119.641C97.3833 119.902 97.2524 120.26 97.2524 120.713C97.2524 121.146 97.3813 121.498 97.6392 121.768C97.9009 122.033 98.2485 122.166 98.6821 122.166C99.1157 122.166 99.4614 122.033 99.7192 121.768C99.981 121.498 100.112 121.146 100.112 120.713C100.112 120.279 99.9771 119.926 99.7075 119.652C99.438 119.379 99.0962 119.242 98.6821 119.242Z" fill="#EEEEF7"/>
<rect x="132.468" y="97" width="66" height="52" fill="white"/>
<circle cx="164.968" cy="122.5" r="19.5" fill="#0088F0"/>
<path d="M166.176 123.25C165.95 123.52 165.678 123.736 165.362 123.9C165.049 124.064 164.706 124.146 164.331 124.146C163.838 124.146 163.409 124.025 163.042 123.783C162.678 123.541 162.397 123.201 162.198 122.764C161.999 122.322 161.899 121.836 161.899 121.305C161.899 120.734 162.006 120.221 162.221 119.764C162.44 119.307 162.749 118.957 163.147 118.715C163.545 118.473 164.01 118.352 164.542 118.352C165.385 118.352 166.049 118.668 166.534 119.301C167.022 119.93 167.266 120.789 167.266 121.879V122.195C167.266 123.855 166.938 125.068 166.282 125.834C165.625 126.596 164.635 126.986 163.311 127.006H163.1V126.092H163.329C164.223 126.076 164.911 125.844 165.391 125.395C165.872 124.941 166.133 124.227 166.176 123.25ZM164.506 123.25C164.87 123.25 165.204 123.139 165.508 122.916C165.817 122.693 166.042 122.418 166.182 122.09V121.656C166.182 120.945 166.028 120.367 165.719 119.922C165.411 119.477 165.02 119.254 164.547 119.254C164.071 119.254 163.688 119.438 163.399 119.805C163.11 120.168 162.965 120.648 162.965 121.246C162.965 121.828 163.104 122.309 163.381 122.688C163.663 123.062 164.038 123.25 164.506 123.25Z" fill="#EEEEF7"/>
<rect x="198.468" y="97" width="66" height="52" fill="white"/>
<circle cx="230.968" cy="122.5" r="19.5" fill="#0088F0"/>
<path d="M227.715 127H226.625V119.775L224.44 120.578V119.594L227.545 118.428H227.715V127ZM236.241 123.361C236.241 124.631 236.024 125.574 235.59 126.191C235.157 126.809 234.479 127.117 233.557 127.117C232.647 127.117 231.973 126.816 231.536 126.215C231.098 125.609 230.872 124.707 230.856 123.508V122.061C230.856 120.807 231.073 119.875 231.506 119.266C231.94 118.656 232.62 118.352 233.545 118.352C234.463 118.352 235.139 118.646 235.573 119.236C236.006 119.822 236.229 120.729 236.241 121.955V123.361ZM235.157 121.879C235.157 120.961 235.028 120.293 234.77 119.875C234.512 119.453 234.104 119.242 233.545 119.242C232.991 119.242 232.586 119.451 232.333 119.869C232.079 120.287 231.948 120.93 231.94 121.797V123.531C231.94 124.453 232.073 125.135 232.338 125.576C232.608 126.014 233.014 126.232 233.557 126.232C234.092 126.232 234.489 126.025 234.747 125.611C235.008 125.197 235.145 124.545 235.157 123.654V121.879Z" fill="#EEEEF7"/>
<rect x="264.468" y="97" width="66" height="52" fill="white"/>
<path d="M293.715 127H292.625V119.775L290.44 120.578V119.594L293.545 118.428H293.715V127ZM300.454 127H299.364V119.775L297.178 120.578V119.594L300.284 118.428H300.454V127Z" fill="#172755"/>
<rect x="330.468" y="97" width="66" height="52" fill="white"/>
<path d="M359.715 127H358.625V119.775L356.44 120.578V119.594L359.545 118.428H359.715V127ZM368.481 127H362.891V126.221L365.844 122.939C366.282 122.443 366.583 122.041 366.747 121.732C366.915 121.42 366.999 121.098 366.999 120.766C366.999 120.32 366.864 119.955 366.594 119.67C366.325 119.385 365.965 119.242 365.516 119.242C364.977 119.242 364.557 119.396 364.256 119.705C363.959 120.01 363.811 120.436 363.811 120.982H362.727C362.727 120.197 362.979 119.562 363.483 119.078C363.991 118.594 364.668 118.352 365.516 118.352C366.309 118.352 366.936 118.561 367.397 118.979C367.858 119.393 368.088 119.945 368.088 120.637C368.088 121.477 367.553 122.477 366.483 123.637L364.198 126.115H368.481V127Z" fill="#172755"/>
<rect x="396.468" y="97" width="66" height="52" fill="white"/>
<path d="M425.715 127H424.625V119.775L422.44 120.578V119.594L425.545 118.428H425.715V127ZM430.467 122.207H431.282C431.793 122.199 432.196 122.064 432.489 121.803C432.782 121.541 432.928 121.188 432.928 120.742C432.928 119.742 432.43 119.242 431.434 119.242C430.965 119.242 430.59 119.377 430.309 119.646C430.032 119.912 429.893 120.266 429.893 120.707H428.809C428.809 120.031 429.055 119.471 429.547 119.025C430.043 118.576 430.672 118.352 431.434 118.352C432.239 118.352 432.87 118.564 433.327 118.99C433.784 119.416 434.012 120.008 434.012 120.766C434.012 121.137 433.891 121.496 433.649 121.844C433.411 122.191 433.084 122.451 432.67 122.623C433.139 122.771 433.5 123.018 433.754 123.361C434.012 123.705 434.141 124.125 434.141 124.621C434.141 125.387 433.891 125.994 433.391 126.443C432.891 126.893 432.241 127.117 431.44 127.117C430.639 127.117 429.987 126.9 429.483 126.467C428.983 126.033 428.733 125.461 428.733 124.75H429.823C429.823 125.199 429.969 125.559 430.262 125.828C430.555 126.098 430.948 126.232 431.44 126.232C431.963 126.232 432.364 126.096 432.641 125.822C432.918 125.549 433.057 125.156 433.057 124.645C433.057 124.148 432.905 123.768 432.6 123.502C432.295 123.236 431.856 123.1 431.282 123.092H430.467V122.207Z" fill="#172755"/>
<rect x="0.467773" y="149" width="66" height="52" fill="white"/>
<path d="M29.7153 179H28.6255V171.775L26.4399 172.578V171.594L29.5454 170.428H29.7153V179ZM37.4673 176.135H38.6509V177.02H37.4673V179H36.3774V177.02H32.4927V176.381L36.313 170.469H37.4673V176.135ZM33.7231 176.135H36.3774V171.951L36.2485 172.186L33.7231 176.135Z" fill="#172755"/>
<rect x="66.4678" y="149" width="66" height="52" fill="white"/>
<path d="M95.7153 179H94.6255V171.775L92.4399 172.578V171.594L95.5454 170.428H95.7153V179ZM99.3892 174.723L99.8228 170.469H104.194V171.471H100.743L100.485 173.797C100.903 173.551 101.377 173.428 101.909 173.428C102.686 173.428 103.303 173.686 103.76 174.201C104.217 174.713 104.446 175.406 104.446 176.281C104.446 177.16 104.208 177.854 103.731 178.361C103.258 178.865 102.596 179.117 101.745 179.117C100.991 179.117 100.375 178.908 99.8989 178.49C99.4224 178.072 99.1509 177.494 99.0845 176.756H100.11C100.176 177.244 100.35 177.613 100.631 177.863C100.913 178.109 101.284 178.232 101.745 178.232C102.249 178.232 102.643 178.061 102.928 177.717C103.217 177.373 103.362 176.898 103.362 176.293C103.362 175.723 103.206 175.266 102.893 174.922C102.584 174.574 102.172 174.4 101.657 174.4C101.184 174.4 100.813 174.504 100.543 174.711L100.256 174.945L99.3892 174.723Z" fill="#172755"/>
<rect x="132.468" y="149" width="66" height="52" fill="white"/>
<path d="M161.715 179H160.625V171.775L158.44 172.578V171.594L161.545 170.428H161.715V179ZM169.145 170.463V171.383H168.946C168.102 171.398 167.43 171.648 166.93 172.133C166.43 172.617 166.141 173.299 166.063 174.178C166.512 173.662 167.125 173.404 167.903 173.404C168.645 173.404 169.237 173.666 169.678 174.189C170.124 174.713 170.346 175.389 170.346 176.217C170.346 177.096 170.106 177.799 169.625 178.326C169.149 178.854 168.508 179.117 167.704 179.117C166.887 179.117 166.225 178.805 165.717 178.18C165.209 177.551 164.956 176.742 164.956 175.754V175.338C164.956 173.768 165.29 172.568 165.958 171.74C166.629 170.908 167.627 170.482 168.952 170.463H169.145ZM167.721 174.307C167.35 174.307 167.008 174.418 166.696 174.641C166.383 174.863 166.167 175.143 166.045 175.479V175.877C166.045 176.58 166.204 177.146 166.52 177.576C166.836 178.006 167.231 178.221 167.704 178.221C168.192 178.221 168.575 178.041 168.852 177.682C169.133 177.322 169.274 176.852 169.274 176.27C169.274 175.684 169.131 175.211 168.846 174.852C168.565 174.488 168.19 174.307 167.721 174.307Z" fill="#172755"/>
<rect x="198.468" y="149" width="66" height="52" fill="white"/>
<path d="M227.715 179H226.625V171.775L224.44 172.578V171.594L227.545 170.428H227.715V179ZM236.399 171.078L232.866 179H231.729L235.25 171.359H230.633V170.469H236.399V171.078Z" fill="#172755"/>
<rect x="264.468" y="149" width="66" height="52" fill="white"/>
<circle cx="296.968" cy="174.5" r="19.5" fill="#EF2A82"/>
<path d="M293.715 179H292.625V171.775L290.44 172.578V171.594L293.545 170.428H293.715V179ZM302.065 172.695C302.065 173.121 301.952 173.5 301.725 173.832C301.502 174.164 301.2 174.424 300.817 174.611C301.262 174.803 301.614 175.082 301.872 175.449C302.133 175.816 302.264 176.232 302.264 176.697C302.264 177.436 302.014 178.023 301.514 178.461C301.018 178.898 300.364 179.117 299.551 179.117C298.731 179.117 298.073 178.898 297.577 178.461C297.084 178.02 296.838 177.432 296.838 176.697C296.838 176.236 296.963 175.82 297.213 175.449C297.467 175.078 297.817 174.797 298.262 174.605C297.883 174.418 297.584 174.158 297.366 173.826C297.147 173.494 297.038 173.117 297.038 172.695C297.038 171.977 297.268 171.406 297.729 170.984C298.19 170.562 298.797 170.352 299.551 170.352C300.301 170.352 300.907 170.562 301.368 170.984C301.833 171.406 302.065 171.977 302.065 172.695ZM301.18 176.674C301.18 176.197 301.028 175.809 300.723 175.508C300.422 175.207 300.028 175.057 299.54 175.057C299.051 175.057 298.659 175.205 298.362 175.502C298.069 175.799 297.922 176.189 297.922 176.674C297.922 177.158 298.065 177.539 298.35 177.816C298.639 178.094 299.04 178.232 299.551 178.232C300.059 178.232 300.458 178.094 300.747 177.816C301.036 177.535 301.18 177.154 301.18 176.674ZM299.551 171.242C299.125 171.242 298.78 171.375 298.514 171.641C298.252 171.902 298.122 172.26 298.122 172.713C298.122 173.146 298.25 173.498 298.508 173.768C298.77 174.033 299.118 174.166 299.551 174.166C299.985 174.166 300.331 174.033 300.588 173.768C300.85 173.498 300.981 173.146 300.981 172.713C300.981 172.279 300.846 171.926 300.577 171.652C300.307 171.379 299.965 171.242 299.551 171.242Z" fill="#EEEEF7"/>
<rect x="330.468" y="149" width="66" height="52" fill="white"/>
<path d="M359.715 179H358.625V171.775L356.44 172.578V171.594L359.545 170.428H359.715V179ZM367.045 175.25C366.819 175.52 366.547 175.736 366.231 175.9C365.918 176.064 365.575 176.146 365.2 176.146C364.708 176.146 364.278 176.025 363.911 175.783C363.547 175.541 363.266 175.201 363.067 174.764C362.868 174.322 362.768 173.836 362.768 173.305C362.768 172.734 362.875 172.221 363.09 171.764C363.309 171.307 363.618 170.957 364.016 170.715C364.415 170.473 364.879 170.352 365.411 170.352C366.254 170.352 366.918 170.668 367.403 171.301C367.891 171.93 368.135 172.789 368.135 173.879V174.195C368.135 175.855 367.807 177.068 367.151 177.834C366.495 178.596 365.504 178.986 364.18 179.006H363.969V178.092H364.198C365.092 178.076 365.78 177.844 366.26 177.395C366.741 176.941 367.002 176.227 367.045 175.25ZM365.375 175.25C365.739 175.25 366.073 175.139 366.377 174.916C366.686 174.693 366.911 174.418 367.051 174.09V173.656C367.051 172.945 366.897 172.367 366.588 171.922C366.28 171.477 365.889 171.254 365.417 171.254C364.94 171.254 364.557 171.438 364.268 171.805C363.979 172.168 363.834 172.648 363.834 173.246C363.834 173.828 363.973 174.309 364.25 174.688C364.532 175.062 364.907 175.25 365.375 175.25Z" fill="#172755"/>
<rect x="396.468" y="149" width="66" height="52" fill="white"/>
<path d="M427.743 179H422.153V178.221L425.106 174.939C425.543 174.443 425.844 174.041 426.008 173.732C426.176 173.42 426.26 173.098 426.26 172.766C426.26 172.32 426.125 171.955 425.856 171.67C425.586 171.385 425.227 171.242 424.778 171.242C424.239 171.242 423.819 171.396 423.518 171.705C423.221 172.01 423.073 172.436 423.073 172.982H421.989C421.989 172.197 422.241 171.562 422.745 171.078C423.252 170.594 423.93 170.352 424.778 170.352C425.571 170.352 426.198 170.561 426.659 170.979C427.12 171.393 427.35 171.945 427.35 172.637C427.35 173.477 426.815 174.477 425.745 175.637L423.459 178.115H427.743V179ZM434.241 175.361C434.241 176.631 434.024 177.574 433.59 178.191C433.157 178.809 432.479 179.117 431.557 179.117C430.647 179.117 429.973 178.816 429.536 178.215C429.098 177.609 428.872 176.707 428.856 175.508V174.061C428.856 172.807 429.073 171.875 429.506 171.266C429.94 170.656 430.62 170.352 431.545 170.352C432.463 170.352 433.139 170.646 433.573 171.236C434.006 171.822 434.229 172.729 434.241 173.955V175.361ZM433.157 173.879C433.157 172.961 433.028 172.293 432.77 171.875C432.512 171.453 432.104 171.242 431.545 171.242C430.991 171.242 430.586 171.451 430.333 171.869C430.079 172.287 429.948 172.93 429.94 173.797V175.531C429.94 176.453 430.073 177.135 430.338 177.576C430.608 178.014 431.014 178.232 431.557 178.232C432.092 178.232 432.489 178.025 432.747 177.611C433.008 177.197 433.145 176.545 433.157 175.654V173.879Z" fill="#172755"/>
<rect x="0.467773" y="201" width="66" height="52" fill="white"/>
<path d="M31.7427 231H26.1528V230.221L29.106 226.939C29.5435 226.443 29.8442 226.041 30.0083 225.732C30.1763 225.42 30.2603 225.098 30.2603 224.766C30.2603 224.32 30.1255 223.955 29.856 223.67C29.5864 223.385 29.2271 223.242 28.7778 223.242C28.2388 223.242 27.8188 223.396 27.5181 223.705C27.2212 224.01 27.0728 224.436 27.0728 224.982H25.9888C25.9888 224.197 26.2407 223.562 26.7446 223.078C27.2524 222.594 27.9302 222.352 28.7778 222.352C29.5708 222.352 30.1978 222.561 30.6587 222.979C31.1196 223.393 31.3501 223.945 31.3501 224.637C31.3501 225.477 30.8149 226.477 29.7446 227.637L27.4595 230.115H31.7427V231ZM36.4536 231H35.3638V223.775L33.1782 224.578V223.594L36.2837 222.428H36.4536V231Z" fill="#172755"/>
<rect x="66.4678" y="201" width="66" height="52" fill="white"/>
<path d="M97.7427 231H92.1528V230.221L95.106 226.939C95.5435 226.443 95.8442 226.041 96.0083 225.732C96.1763 225.42 96.2603 225.098 96.2603 224.766C96.2603 224.32 96.1255 223.955 95.856 223.67C95.5864 223.385 95.2271 223.242 94.7778 223.242C94.2388 223.242 93.8188 223.396 93.5181 223.705C93.2212 224.01 93.0728 224.436 93.0728 224.982H91.9888C91.9888 224.197 92.2407 223.562 92.7446 223.078C93.2524 222.594 93.9302 222.352 94.7778 222.352C95.5708 222.352 96.1978 222.561 96.6587 222.979C97.1196 223.393 97.3501 223.945 97.3501 224.637C97.3501 225.477 96.8149 226.477 95.7446 227.637L93.4595 230.115H97.7427V231ZM104.481 231H98.8911V230.221L101.844 226.939C102.282 226.443 102.583 226.041 102.747 225.732C102.915 225.42 102.999 225.098 102.999 224.766C102.999 224.32 102.864 223.955 102.594 223.67C102.325 223.385 101.965 223.242 101.516 223.242C100.977 223.242 100.557 223.396 100.256 223.705C99.9595 224.01 99.811 224.436 99.811 224.982H98.7271C98.7271 224.197 98.979 223.562 99.4829 223.078C99.9907 222.594 100.668 222.352 101.516 222.352C102.309 222.352 102.936 222.561 103.397 222.979C103.858 223.393 104.088 223.945 104.088 224.637C104.088 225.477 103.553 226.477 102.483 227.637L100.198 230.115H104.481V231Z" fill="#172755"/>
<rect x="132.468" y="201" width="66" height="52" fill="white"/>
<path d="M163.743 231H158.153V230.221L161.106 226.939C161.543 226.443 161.844 226.041 162.008 225.732C162.176 225.42 162.26 225.098 162.26 224.766C162.26 224.32 162.125 223.955 161.856 223.67C161.586 223.385 161.227 223.242 160.778 223.242C160.239 223.242 159.819 223.396 159.518 223.705C159.221 224.01 159.073 224.436 159.073 224.982H157.989C157.989 224.197 158.241 223.562 158.745 223.078C159.252 222.594 159.93 222.352 160.778 222.352C161.571 222.352 162.198 222.561 162.659 222.979C163.12 223.393 163.35 223.945 163.35 224.637C163.35 225.477 162.815 226.477 161.745 227.637L159.459 230.115H163.743V231ZM166.467 226.207H167.282C167.793 226.199 168.196 226.064 168.489 225.803C168.782 225.541 168.928 225.188 168.928 224.742C168.928 223.742 168.43 223.242 167.434 223.242C166.965 223.242 166.59 223.377 166.309 223.646C166.032 223.912 165.893 224.266 165.893 224.707H164.809C164.809 224.031 165.055 223.471 165.547 223.025C166.043 222.576 166.672 222.352 167.434 222.352C168.239 222.352 168.87 222.564 169.327 222.99C169.784 223.416 170.012 224.008 170.012 224.766C170.012 225.137 169.891 225.496 169.649 225.844C169.411 226.191 169.084 226.451 168.67 226.623C169.139 226.771 169.5 227.018 169.754 227.361C170.012 227.705 170.141 228.125 170.141 228.621C170.141 229.387 169.891 229.994 169.391 230.443C168.891 230.893 168.241 231.117 167.44 231.117C166.639 231.117 165.987 230.9 165.483 230.467C164.983 230.033 164.733 229.461 164.733 228.75H165.823C165.823 229.199 165.969 229.559 166.262 229.828C166.555 230.098 166.948 230.232 167.44 230.232C167.963 230.232 168.364 230.096 168.641 229.822C168.918 229.549 169.057 229.156 169.057 228.645C169.057 228.148 168.905 227.768 168.6 227.502C168.295 227.236 167.856 227.1 167.282 227.092H166.467V226.207Z" fill="#172755"/>
<rect x="198.468" y="201" width="66" height="52" fill="white"/>
<path d="M229.743 231H224.153V230.221L227.106 226.939C227.543 226.443 227.844 226.041 228.008 225.732C228.176 225.42 228.26 225.098 228.26 224.766C228.26 224.32 228.125 223.955 227.856 223.67C227.586 223.385 227.227 223.242 226.778 223.242C226.239 223.242 225.819 223.396 225.518 223.705C225.221 224.01 225.073 224.436 225.073 224.982H223.989C223.989 224.197 224.241 223.562 224.745 223.078C225.252 222.594 225.93 222.352 226.778 222.352C227.571 222.352 228.198 222.561 228.659 222.979C229.12 223.393 229.35 223.945 229.35 224.637C229.35 225.477 228.815 226.477 227.745 227.637L225.459 230.115H229.743V231ZM235.467 228.135H236.651V229.02H235.467V231H234.377V229.02H230.493V228.381L234.313 222.469H235.467V228.135ZM231.723 228.135H234.377V223.951L234.249 224.186L231.723 228.135Z" fill="#172755"/>
<rect x="264.468" y="201" width="66" height="52" fill="white"/>
<path d="M295.743 231H290.153V230.221L293.106 226.939C293.543 226.443 293.844 226.041 294.008 225.732C294.176 225.42 294.26 225.098 294.26 224.766C294.26 224.32 294.125 223.955 293.856 223.67C293.586 223.385 293.227 223.242 292.778 223.242C292.239 223.242 291.819 223.396 291.518 223.705C291.221 224.01 291.073 224.436 291.073 224.982H289.989C289.989 224.197 290.241 223.562 290.745 223.078C291.252 222.594 291.93 222.352 292.778 222.352C293.571 222.352 294.198 222.561 294.659 222.979C295.12 223.393 295.35 223.945 295.35 224.637C295.35 225.477 294.815 226.477 293.745 227.637L291.459 230.115H295.743V231ZM297.389 226.723L297.823 222.469H302.194V223.471H298.743L298.485 225.797C298.903 225.551 299.377 225.428 299.909 225.428C300.686 225.428 301.303 225.686 301.76 226.201C302.217 226.713 302.446 227.406 302.446 228.281C302.446 229.16 302.208 229.854 301.731 230.361C301.258 230.865 300.596 231.117 299.745 231.117C298.991 231.117 298.375 230.908 297.899 230.49C297.422 230.072 297.151 229.494 297.084 228.756H298.11C298.176 229.244 298.35 229.613 298.631 229.863C298.913 230.109 299.284 230.232 299.745 230.232C300.249 230.232 300.643 230.061 300.928 229.717C301.217 229.373 301.362 228.898 301.362 228.293C301.362 227.723 301.206 227.266 300.893 226.922C300.584 226.574 300.172 226.4 299.657 226.4C299.184 226.4 298.813 226.504 298.543 226.711L298.256 226.945L297.389 226.723Z" fill="#172755"/>
<rect x="330.468" y="201" width="66" height="52" fill="white"/>
<path d="M361.743 231H356.153V230.221L359.106 226.939C359.543 226.443 359.844 226.041 360.008 225.732C360.176 225.42 360.26 225.098 360.26 224.766C360.26 224.32 360.125 223.955 359.856 223.67C359.586 223.385 359.227 223.242 358.778 223.242C358.239 223.242 357.819 223.396 357.518 223.705C357.221 224.01 357.073 224.436 357.073 224.982H355.989C355.989 224.197 356.241 223.562 356.745 223.078C357.252 222.594 357.93 222.352 358.778 222.352C359.571 222.352 360.198 222.561 360.659 222.979C361.12 223.393 361.35 223.945 361.35 224.637C361.35 225.477 360.815 226.477 359.745 227.637L357.459 230.115H361.743V231ZM367.145 222.463V223.383H366.946C366.102 223.398 365.43 223.648 364.93 224.133C364.43 224.617 364.141 225.299 364.063 226.178C364.512 225.662 365.125 225.404 365.903 225.404C366.645 225.404 367.237 225.666 367.678 226.189C368.124 226.713 368.346 227.389 368.346 228.217C368.346 229.096 368.106 229.799 367.625 230.326C367.149 230.854 366.508 231.117 365.704 231.117C364.887 231.117 364.225 230.805 363.717 230.18C363.209 229.551 362.956 228.742 362.956 227.754V227.338C362.956 225.768 363.29 224.568 363.958 223.74C364.629 222.908 365.627 222.482 366.952 222.463H367.145ZM365.721 226.307C365.35 226.307 365.008 226.418 364.696 226.641C364.383 226.863 364.167 227.143 364.045 227.479V227.877C364.045 228.58 364.204 229.146 364.52 229.576C364.836 230.006 365.231 230.221 365.704 230.221C366.192 230.221 366.575 230.041 366.852 229.682C367.133 229.322 367.274 228.852 367.274 228.27C367.274 227.684 367.131 227.211 366.846 226.852C366.565 226.488 366.19 226.307 365.721 226.307Z" fill="#172755"/>
<rect x="396.468" y="201" width="66" height="52" fill="white"/>
<path d="M427.743 231H422.153V230.221L425.106 226.939C425.543 226.443 425.844 226.041 426.008 225.732C426.176 225.42 426.26 225.098 426.26 224.766C426.26 224.32 426.125 223.955 425.856 223.67C425.586 223.385 425.227 223.242 424.778 223.242C424.239 223.242 423.819 223.396 423.518 223.705C423.221 224.01 423.073 224.436 423.073 224.982H421.989C421.989 224.197 422.241 223.562 422.745 223.078C423.252 222.594 423.93 222.352 424.778 222.352C425.571 222.352 426.198 222.561 426.659 222.979C427.12 223.393 427.35 223.945 427.35 224.637C427.35 225.477 426.815 226.477 425.745 227.637L423.459 230.115H427.743V231ZM434.399 223.078L430.866 231H429.729L433.25 223.359H428.633V222.469H434.399V223.078Z" fill="#172755"/>
<rect x="0.467773" y="253" width="66" height="52" fill="white"/>
<path d="M31.7427 283H26.1528V282.221L29.106 278.939C29.5435 278.443 29.8442 278.041 30.0083 277.732C30.1763 277.42 30.2603 277.098 30.2603 276.766C30.2603 276.32 30.1255 275.955 29.856 275.67C29.5864 275.385 29.2271 275.242 28.7778 275.242C28.2388 275.242 27.8188 275.396 27.5181 275.705C27.2212 276.01 27.0728 276.436 27.0728 276.982H25.9888C25.9888 276.197 26.2407 275.562 26.7446 275.078C27.2524 274.594 27.9302 274.352 28.7778 274.352C29.5708 274.352 30.1978 274.561 30.6587 274.979C31.1196 275.393 31.3501 275.945 31.3501 276.637C31.3501 277.477 30.8149 278.477 29.7446 279.637L27.4595 282.115H31.7427V283ZM38.0649 276.695C38.0649 277.121 37.9517 277.5 37.7251 277.832C37.5024 278.164 37.1997 278.424 36.8169 278.611C37.2622 278.803 37.6138 279.082 37.8716 279.449C38.1333 279.816 38.2642 280.232 38.2642 280.697C38.2642 281.436 38.0142 282.023 37.5142 282.461C37.0181 282.898 36.3638 283.117 35.5513 283.117C34.731 283.117 34.0728 282.898 33.5767 282.461C33.0845 282.02 32.8384 281.432 32.8384 280.697C32.8384 280.236 32.9634 279.82 33.2134 279.449C33.4673 279.078 33.8169 278.797 34.2622 278.605C33.8833 278.418 33.5845 278.158 33.3657 277.826C33.147 277.494 33.0376 277.117 33.0376 276.695C33.0376 275.977 33.2681 275.406 33.729 274.984C34.1899 274.562 34.7974 274.352 35.5513 274.352C36.3013 274.352 36.9067 274.562 37.3677 274.984C37.8325 275.406 38.0649 275.977 38.0649 276.695ZM37.1802 280.674C37.1802 280.197 37.0278 279.809 36.7231 279.508C36.4224 279.207 36.0278 279.057 35.5396 279.057C35.0513 279.057 34.6587 279.205 34.3618 279.502C34.0688 279.799 33.9224 280.189 33.9224 280.674C33.9224 281.158 34.0649 281.539 34.3501 281.816C34.6392 282.094 35.0396 282.232 35.5513 282.232C36.0591 282.232 36.4575 282.094 36.7466 281.816C37.0356 281.535 37.1802 281.154 37.1802 280.674ZM35.5513 275.242C35.1255 275.242 34.7798 275.375 34.5142 275.641C34.2524 275.902 34.1216 276.26 34.1216 276.713C34.1216 277.146 34.2505 277.498 34.5083 277.768C34.77 278.033 35.1177 278.166 35.5513 278.166C35.9849 278.166 36.3306 278.033 36.5884 277.768C36.8501 277.498 36.981 277.146 36.981 276.713C36.981 276.279 36.8462 275.926 36.5767 275.652C36.3071 275.379 35.9653 275.242 35.5513 275.242Z" fill="#172755"/>
<rect x="66.4678" y="253" width="66" height="52" fill="white"/>
<path d="M97.7427 283H92.1528V282.221L95.106 278.939C95.5435 278.443 95.8442 278.041 96.0083 277.732C96.1763 277.42 96.2603 277.098 96.2603 276.766C96.2603 276.32 96.1255 275.955 95.856 275.67C95.5864 275.385 95.2271 275.242 94.7778 275.242C94.2388 275.242 93.8188 275.396 93.5181 275.705C93.2212 276.01 93.0728 276.436 93.0728 276.982H91.9888C91.9888 276.197 92.2407 275.562 92.7446 275.078C93.2524 274.594 93.9302 274.352 94.7778 274.352C95.5708 274.352 96.1978 274.561 96.6587 274.979C97.1196 275.393 97.3501 275.945 97.3501 276.637C97.3501 277.477 96.8149 278.477 95.7446 279.637L93.4595 282.115H97.7427V283ZM103.045 279.25C102.819 279.52 102.547 279.736 102.231 279.9C101.918 280.064 101.575 280.146 101.2 280.146C100.708 280.146 100.278 280.025 99.9106 279.783C99.5474 279.541 99.2661 279.201 99.0669 278.764C98.8677 278.322 98.7681 277.836 98.7681 277.305C98.7681 276.734 98.8755 276.221 99.0903 275.764C99.3091 275.307 99.6177 274.957 100.016 274.715C100.415 274.473 100.879 274.352 101.411 274.352C102.254 274.352 102.918 274.668 103.403 275.301C103.891 275.93 104.135 276.789 104.135 277.879V278.195C104.135 279.855 103.807 281.068 103.151 281.834C102.495 282.596 101.504 282.986 100.18 283.006H99.9692V282.092H100.198C101.092 282.076 101.78 281.844 102.26 281.395C102.741 280.941 103.002 280.227 103.045 279.25ZM101.375 279.25C101.739 279.25 102.073 279.139 102.377 278.916C102.686 278.693 102.911 278.418 103.051 278.09V277.656C103.051 276.945 102.897 276.367 102.588 275.922C102.28 275.477 101.889 275.254 101.417 275.254C100.94 275.254 100.557 275.438 100.268 275.805C99.979 276.168 99.8345 276.648 99.8345 277.246C99.8345 277.828 99.9731 278.309 100.25 278.688C100.532 279.062 100.907 279.25 101.375 279.25Z" fill="#172755"/>
<rect x="132.468" y="253" width="66" height="52" fill="white"/>
<path d="M159.729 278.207H160.543C161.055 278.199 161.458 278.064 161.75 277.803C162.043 277.541 162.19 277.188 162.19 276.742C162.19 275.742 161.692 275.242 160.696 275.242C160.227 275.242 159.852 275.377 159.571 275.646C159.293 275.912 159.155 276.266 159.155 276.707H158.071C158.071 276.031 158.317 275.471 158.809 275.025C159.305 274.576 159.934 274.352 160.696 274.352C161.5 274.352 162.131 274.564 162.588 274.99C163.045 275.416 163.274 276.008 163.274 276.766C163.274 277.137 163.153 277.496 162.911 277.844C162.672 278.191 162.346 278.451 161.932 278.623C162.401 278.771 162.762 279.018 163.016 279.361C163.274 279.705 163.403 280.125 163.403 280.621C163.403 281.387 163.153 281.994 162.653 282.443C162.153 282.893 161.502 283.117 160.702 283.117C159.901 283.117 159.249 282.9 158.745 282.467C158.245 282.033 157.995 281.461 157.995 280.75H159.084C159.084 281.199 159.231 281.559 159.524 281.828C159.817 282.098 160.209 282.232 160.702 282.232C161.225 282.232 161.625 282.096 161.903 281.822C162.18 281.549 162.319 281.156 162.319 280.645C162.319 280.148 162.167 279.768 161.862 279.502C161.557 279.236 161.118 279.1 160.543 279.092H159.729V278.207ZM170.241 279.361C170.241 280.631 170.024 281.574 169.59 282.191C169.157 282.809 168.479 283.117 167.557 283.117C166.647 283.117 165.973 282.816 165.536 282.215C165.098 281.609 164.872 280.707 164.856 279.508V278.061C164.856 276.807 165.073 275.875 165.506 275.266C165.94 274.656 166.62 274.352 167.545 274.352C168.463 274.352 169.139 274.646 169.573 275.236C170.006 275.822 170.229 276.729 170.241 277.955V279.361ZM169.157 277.879C169.157 276.961 169.028 276.293 168.77 275.875C168.512 275.453 168.104 275.242 167.545 275.242C166.991 275.242 166.586 275.451 166.333 275.869C166.079 276.287 165.948 276.93 165.94 277.797V279.531C165.94 280.453 166.073 281.135 166.338 281.576C166.608 282.014 167.014 282.232 167.557 282.232C168.092 282.232 168.489 282.025 168.747 281.611C169.008 281.197 169.145 280.545 169.157 279.654V277.879Z" fill="#172755"/>
<rect x="198.468" y="253" width="66" height="52" fill="white"/>
<path d="M225.729 278.207H226.543C227.055 278.199 227.458 278.064 227.75 277.803C228.043 277.541 228.19 277.188 228.19 276.742C228.19 275.742 227.692 275.242 226.696 275.242C226.227 275.242 225.852 275.377 225.571 275.646C225.293 275.912 225.155 276.266 225.155 276.707H224.071C224.071 276.031 224.317 275.471 224.809 275.025C225.305 274.576 225.934 274.352 226.696 274.352C227.5 274.352 228.131 274.564 228.588 274.99C229.045 275.416 229.274 276.008 229.274 276.766C229.274 277.137 229.153 277.496 228.911 277.844C228.672 278.191 228.346 278.451 227.932 278.623C228.401 278.771 228.762 279.018 229.016 279.361C229.274 279.705 229.403 280.125 229.403 280.621C229.403 281.387 229.153 281.994 228.653 282.443C228.153 282.893 227.502 283.117 226.702 283.117C225.901 283.117 225.249 282.9 224.745 282.467C224.245 282.033 223.995 281.461 223.995 280.75H225.084C225.084 281.199 225.231 281.559 225.524 281.828C225.817 282.098 226.209 282.232 226.702 282.232C227.225 282.232 227.625 282.096 227.903 281.822C228.18 281.549 228.319 281.156 228.319 280.645C228.319 280.148 228.167 279.768 227.862 279.502C227.557 279.236 227.118 279.1 226.543 279.092H225.729V278.207ZM234.454 283H233.364V275.775L231.178 276.578V275.594L234.284 274.428H234.454V283Z" fill="#172755"/>
<rect x="264.468" y="253" width="66" height="52" fill="white"/>
<rect x="330.468" y="253" width="66" height="52" fill="white"/>
<rect x="396.468" y="253" width="66" height="52" fill="white"/>
<path d="M20.2705 4.46875L23.0596 11.4297L25.8486 4.46875H27.3076V13H26.1826V9.67773L26.2881 6.0918L23.4873 13H22.626L19.8311 6.10938L19.9424 9.67773V13H18.8174V4.46875H20.2705ZM35.8564 9.00977C35.8564 9.8457 35.7158 10.5762 35.4346 11.2012C35.1533 11.8223 34.7549 12.2969 34.2393 12.625C33.7236 12.9531 33.1221 13.1172 32.4346 13.1172C31.7627 13.1172 31.167 12.9531 30.6475 12.625C30.1279 12.293 29.7236 11.8223 29.4346 11.2129C29.1494 10.5996 29.0029 9.89062 28.9951 9.08594V8.4707C28.9951 7.65039 29.1377 6.92578 29.4229 6.29688C29.708 5.66797 30.1104 5.1875 30.6299 4.85547C31.1533 4.51953 31.751 4.35156 32.4229 4.35156C33.1064 4.35156 33.708 4.51758 34.2275 4.84961C34.751 5.17773 35.1533 5.65625 35.4346 6.28516C35.7158 6.91016 35.8564 7.63867 35.8564 8.4707V9.00977ZM34.7373 8.45898C34.7373 7.44727 34.5342 6.67188 34.1279 6.13281C33.7217 5.58984 33.1533 5.31836 32.4229 5.31836C31.7119 5.31836 31.1514 5.58984 30.7412 6.13281C30.335 6.67188 30.126 7.42188 30.1143 8.38281V9.00977C30.1143 9.99023 30.3193 10.7617 30.7295 11.3242C31.1436 11.8828 31.7119 12.1621 32.4346 12.1621C33.1611 12.1621 33.7236 11.8984 34.1221 11.3711C34.5205 10.8398 34.7256 10.0801 34.7373 9.0918V8.45898ZM44.1006 13H42.9697L38.6748 6.42578V13H37.5439V4.46875H38.6748L42.9814 11.0723V4.46875H44.1006V13Z" fill="#8794BA"/>
<path d="M93.4717 5.39453H90.7295V13H89.6104V5.39453H86.874V4.46875H93.4717V5.39453ZM100.743 4.46875V10.2695C100.739 11.0742 100.485 11.7324 99.9814 12.2441C99.4814 12.7559 98.8018 13.043 97.9424 13.1055L97.6436 13.1172C96.71 13.1172 95.9658 12.8652 95.4111 12.3613C94.8564 11.8574 94.5752 11.1641 94.5674 10.2812V4.46875H95.6807V10.2461C95.6807 10.8633 95.8506 11.3438 96.1904 11.6875C96.5303 12.0273 97.0146 12.1973 97.6436 12.1973C98.2803 12.1973 98.7666 12.0273 99.1025 11.6875C99.4424 11.3477 99.6123 10.8691 99.6123 10.252V4.46875H100.743ZM107.341 9.05664H103.644V12.0801H107.938V13H102.519V4.46875H107.88V5.39453H103.644V8.13672H107.341V9.05664Z" fill="#8794BA"/>
<path d="M153.624 10.3105L153.788 11.4355L154.028 10.4219L155.716 4.46875H156.665L158.312 10.4219L158.546 11.4531L158.728 10.3047L160.052 4.46875H161.183L159.114 13H158.089L156.331 6.7832L156.196 6.13281L156.062 6.7832L154.239 13H153.214L151.151 4.46875H152.276L153.624 10.3105ZM167.259 9.05664H163.562V12.0801H167.856V13H162.437V4.46875H167.798V5.39453H163.562V8.13672H167.259V9.05664ZM169.257 13V4.46875H171.665C172.407 4.46875 173.063 4.63281 173.634 4.96094C174.204 5.28906 174.644 5.75586 174.952 6.36133C175.265 6.9668 175.423 7.66211 175.427 8.44727V8.99219C175.427 9.79688 175.271 10.502 174.958 11.1074C174.649 11.7129 174.206 12.1777 173.628 12.502C173.054 12.8262 172.384 12.9922 171.618 13H169.257ZM170.382 5.39453V12.0801H171.565C172.433 12.0801 173.106 11.8105 173.587 11.2715C174.071 10.7324 174.313 9.96484 174.313 8.96875V8.4707C174.313 7.50195 174.085 6.75 173.628 6.21484C173.175 5.67578 172.53 5.40234 171.694 5.39453H170.382Z" fill="#8794BA"/>
<path d="M224.604 5.39453H221.862V13H220.743V5.39453H218.007V4.46875H224.604V5.39453ZM232.427 13H231.296V9.05664H226.995V13H225.87V4.46875H226.995V8.13672H231.296V4.46875H232.427V13ZM240.431 4.46875V10.2695C240.427 11.0742 240.173 11.7324 239.669 12.2441C239.169 12.7559 238.489 13.043 237.63 13.1055L237.331 13.1172C236.397 13.1172 235.653 12.8652 235.099 12.3613C234.544 11.8574 234.263 11.1641 234.255 10.2812V4.46875H235.368V10.2461C235.368 10.8633 235.538 11.3438 235.878 11.6875C236.218 12.0273 236.702 12.1973 237.331 12.1973C237.968 12.1973 238.454 12.0273 238.79 11.6875C239.13 11.3477 239.3 10.8691 239.3 10.252V4.46875H240.431Z" fill="#8794BA"/>
<path d="M292.515 9.23242H288.935V13H287.81V4.46875H293.095V5.39453H288.935V8.3125H292.515V9.23242ZM297.571 9.54883H295.567V13H294.437V4.46875H297.261C298.222 4.46875 298.96 4.6875 299.476 5.125C299.995 5.5625 300.255 6.19922 300.255 7.03516C300.255 7.56641 300.11 8.0293 299.821 8.42383C299.536 8.81836 299.138 9.11328 298.626 9.30859L300.63 12.9297V13H299.423L297.571 9.54883ZM295.567 8.62891H297.296C297.854 8.62891 298.298 8.48438 298.626 8.19531C298.958 7.90625 299.124 7.51953 299.124 7.03516C299.124 6.50781 298.966 6.10352 298.649 5.82227C298.337 5.54102 297.884 5.39844 297.29 5.39453H295.567V8.62891ZM303.044 13H301.919V4.46875H303.044V13Z" fill="#8794BA"/>
<path d="M354.296 9.19727C353.331 8.91992 352.628 8.58008 352.187 8.17773C351.749 7.77148 351.53 7.27148 351.53 6.67773C351.53 6.00586 351.798 5.45117 352.333 5.01367C352.872 4.57227 353.571 4.35156 354.431 4.35156C355.017 4.35156 355.538 4.46484 355.995 4.69141C356.456 4.91797 356.812 5.23047 357.062 5.62891C357.315 6.02734 357.442 6.46289 357.442 6.93555H356.312C356.312 6.41992 356.147 6.01562 355.819 5.72266C355.491 5.42578 355.028 5.27734 354.431 5.27734C353.876 5.27734 353.442 5.40039 353.13 5.64648C352.821 5.88867 352.667 6.22656 352.667 6.66016C352.667 7.00781 352.813 7.30273 353.106 7.54492C353.403 7.7832 353.905 8.00195 354.612 8.20117C355.323 8.40039 355.878 8.62109 356.276 8.86328C356.679 9.10156 356.976 9.38086 357.167 9.70117C357.362 10.0215 357.46 10.3984 357.46 10.832C357.46 11.5234 357.19 12.0781 356.651 12.4961C356.112 12.9102 355.392 13.1172 354.489 13.1172C353.903 13.1172 353.356 13.0059 352.849 12.7832C352.341 12.5566 351.948 12.248 351.671 11.8574C351.397 11.4668 351.261 11.0234 351.261 10.5273H352.392C352.392 11.043 352.581 11.4512 352.96 11.752C353.343 12.0488 353.853 12.1973 354.489 12.1973C355.083 12.1973 355.538 12.0762 355.854 11.834C356.171 11.5918 356.329 11.2617 356.329 10.8438C356.329 10.4258 356.183 10.1035 355.89 9.87695C355.597 9.64648 355.065 9.41992 354.296 9.19727ZM363.618 10.7734H360.044L359.241 13H358.081L361.339 4.46875H362.323L365.587 13H364.433L363.618 10.7734ZM360.384 9.84766H363.284L361.831 5.85742L360.384 9.84766ZM371.868 5.39453H369.126V13H368.007V5.39453H365.271V4.46875H371.868V5.39453Z" fill="#8794BA"/>
<path d="M419.241 9.19727C418.276 8.91992 417.573 8.58008 417.132 8.17773C416.694 7.77148 416.476 7.27148 416.476 6.67773C416.476 6.00586 416.743 5.45117 417.278 5.01367C417.817 4.57227 418.517 4.35156 419.376 4.35156C419.962 4.35156 420.483 4.46484 420.94 4.69141C421.401 4.91797 421.757 5.23047 422.007 5.62891C422.261 6.02734 422.388 6.46289 422.388 6.93555H421.257C421.257 6.41992 421.093 6.01562 420.765 5.72266C420.437 5.42578 419.974 5.27734 419.376 5.27734C418.821 5.27734 418.388 5.40039 418.075 5.64648C417.767 5.88867 417.612 6.22656 417.612 6.66016C417.612 7.00781 417.759 7.30273 418.052 7.54492C418.349 7.7832 418.851 8.00195 419.558 8.20117C420.269 8.40039 420.823 8.62109 421.222 8.86328C421.624 9.10156 421.921 9.38086 422.112 9.70117C422.308 10.0215 422.405 10.3984 422.405 10.832C422.405 11.5234 422.136 12.0781 421.597 12.4961C421.058 12.9102 420.337 13.1172 419.435 13.1172C418.849 13.1172 418.302 13.0059 417.794 12.7832C417.286 12.5566 416.894 12.248 416.616 11.8574C416.343 11.4668 416.206 11.0234 416.206 10.5273H417.337C417.337 11.043 417.526 11.4512 417.905 11.752C418.288 12.0488 418.798 12.1973 419.435 12.1973C420.028 12.1973 420.483 12.0762 420.8 11.834C421.116 11.5918 421.274 11.2617 421.274 10.8438C421.274 10.4258 421.128 10.1035 420.835 9.87695C420.542 9.64648 420.011 9.41992 419.241 9.19727ZM429.858 4.46875V10.2695C429.854 11.0742 429.601 11.7324 429.097 12.2441C428.597 12.7559 427.917 13.043 427.058 13.1055L426.759 13.1172C425.825 13.1172 425.081 12.8652 424.526 12.3613C423.972 11.8574 423.69 11.1641 423.683 10.2812V4.46875H424.796V10.2461C424.796 10.8633 424.966 11.3438 425.306 11.6875C425.646 12.0273 426.13 12.1973 426.759 12.1973C427.396 12.1973 427.882 12.0273 428.218 11.6875C428.558 11.3477 428.728 10.8691 428.728 10.252V4.46875H429.858ZM438.19 13H437.06L432.765 6.42578V13H431.634V4.46875H432.765L437.071 11.0723V4.46875H438.19V13Z" fill="#8794BA"/>
</svg>
