<svg width="465" height="311" viewBox="0 0 465 311" fill="none" xmlns="http://www.w3.org/2000/svg">
<path d="M47.1442 89.0774L156.129 26.1547L265.115 89.0774V214.923L156.129 277.845L47.1442 214.923V89.0774Z" stroke="#EEEEF7" stroke-width="2"/>
<path d="M85.2493 111.077L156.129 70.1547L227.01 111.077V192.923L156.129 233.845L85.2493 192.923V111.077Z" stroke="#EEEEF7" stroke-width="2"/>
<path d="M98.5426 119.015L156.493 71.2916L238.209 103.394L244.06 201.403L156.475 253.468L92.2063 186.278L98.5426 119.015Z" stroke="#0088F0" stroke-width="4"/>
<path d="M72.6508 104.392L155.491 58.6373L201.369 126.966L231.571 196H156.403L103.919 181.338L72.6508 104.392Z" stroke="#EF2A82" stroke-width="4"/>
<path d="M132.015 138.077L156.129 124.155L180.244 138.077V165.923L156.129 179.845L132.015 165.923V138.077Z" stroke="#EEEEF7" stroke-width="2"/>
<path d="M396.638 85.2517H399.314C400.995 85.226 402.317 84.7832 403.28 83.9233C404.242 83.0633 404.724 81.9018 404.724 80.4386C404.724 77.1529 403.087 75.51 399.814 75.51C398.274 75.51 397.042 75.9528 396.118 76.8384C395.207 77.7112 394.751 78.8728 394.751 80.3231H391.189C391.189 78.1027 391.998 76.2609 393.615 74.7977C395.245 73.3217 397.312 72.5837 399.814 72.5837C402.458 72.5837 404.531 73.2832 406.033 74.6822C407.535 76.0812 408.285 78.0257 408.285 80.5156C408.285 81.7349 407.887 82.9157 407.092 84.058C406.309 85.2003 405.237 86.0538 403.877 86.6186C405.417 87.1063 406.604 87.9149 407.438 89.0444C408.285 90.1738 408.709 91.5536 408.709 93.1836C408.709 95.6992 407.887 97.695 406.245 99.171C404.602 100.647 402.465 101.385 399.834 101.385C397.202 101.385 395.059 100.673 393.403 99.248C391.761 97.8234 390.939 95.9431 390.939 93.6071H394.52C394.52 95.0831 395.001 96.264 395.964 97.1496C396.927 98.0352 398.216 98.478 399.834 98.478C401.554 98.478 402.869 98.0287 403.78 97.1303C404.692 96.2319 405.147 94.942 405.147 93.2606C405.147 91.6306 404.647 90.3792 403.646 89.5064C402.644 88.6336 401.201 88.1844 399.314 88.1588H396.638V85.2517ZM428.635 91.5857H432.524V94.4927H428.635V101H425.054V94.4927H412.29V92.3943L424.842 72.9687H428.635V91.5857ZM416.333 91.5857H425.054V77.8396L424.631 78.6097L416.333 91.5857ZM435.431 78.3594C435.431 76.678 435.964 75.2919 437.029 74.2009C438.107 73.1099 439.487 72.5645 441.168 72.5645C442.875 72.5645 444.255 73.1163 445.307 74.2201C446.373 75.3111 446.905 76.7294 446.905 78.4749V79.8418C446.905 81.536 446.366 82.9222 445.288 84.0003C444.223 85.0656 442.862 85.5982 441.207 85.5982C439.538 85.5982 438.158 85.0656 437.067 84.0003C435.976 82.9222 435.431 81.4911 435.431 79.707V78.3594ZM438.088 79.8418C438.088 80.8429 438.37 81.6708 438.935 82.3253C439.5 82.9671 440.257 83.2879 441.207 83.2879C442.118 83.2879 442.85 82.9735 443.401 82.3446C443.966 81.7157 444.249 80.8557 444.249 79.7648V78.3594C444.249 77.3583 443.973 76.5304 443.421 75.8758C442.869 75.2213 442.118 74.894 441.168 74.894C440.218 74.894 439.468 75.2213 438.916 75.8758C438.364 76.5304 438.088 77.3839 438.088 78.4364V79.8418ZM449.081 94.127C449.081 92.4456 449.613 91.0658 450.679 89.9877C451.757 88.8968 453.137 88.3513 454.818 88.3513C456.499 88.3513 457.879 88.8903 458.957 89.9685C460.035 91.0466 460.574 92.4777 460.574 94.2617V95.6286C460.574 97.31 460.035 98.6961 458.957 99.7871C457.892 100.865 456.525 101.404 454.857 101.404C453.188 101.404 451.808 100.872 450.717 99.8064C449.626 98.7282 449.081 97.2972 449.081 95.5131V94.127ZM451.738 95.6286C451.738 96.6426 452.02 97.4768 452.585 98.1314C453.149 98.7732 453.907 99.094 454.857 99.094C455.781 99.094 456.519 98.7796 457.071 98.1507C457.622 97.5089 457.898 96.6426 457.898 95.5516V94.127C457.898 93.113 457.616 92.2852 457.051 91.6434C456.499 91.0017 455.755 90.6808 454.818 90.6808C453.907 90.6808 453.162 91.0017 452.585 91.6434C452.02 92.2723 451.738 93.1258 451.738 94.204V95.6286ZM442.015 98.8823L439.994 97.6116L453.682 75.7026L455.704 76.9732L442.015 98.8823Z" fill="#EF2A82"/>
<path d="M389.929 127.157C389.929 126.226 390.111 125.388 390.474 124.644C390.843 123.899 391.353 123.325 392.003 122.921C392.66 122.517 393.407 122.314 394.245 122.314C395.54 122.314 396.585 122.763 397.382 123.659C398.185 124.556 398.586 125.748 398.586 127.236V127.351C398.586 128.276 398.408 129.108 398.05 129.847C397.699 130.579 397.192 131.15 396.53 131.561C395.874 131.971 395.118 132.176 394.262 132.176C392.973 132.176 391.927 131.728 391.125 130.831C390.328 129.935 389.929 128.748 389.929 127.271V127.157ZM391.564 127.351C391.564 128.405 391.807 129.252 392.293 129.891C392.786 130.529 393.442 130.849 394.262 130.849C395.088 130.849 395.745 130.526 396.231 129.882C396.717 129.231 396.96 128.323 396.96 127.157C396.96 126.114 396.711 125.271 396.213 124.626C395.721 123.976 395.065 123.65 394.245 123.65C393.442 123.65 392.794 123.97 392.302 124.608C391.81 125.247 391.564 126.161 391.564 127.351ZM408.659 127.351C408.659 128.798 408.328 129.964 407.666 130.849C407.003 131.733 406.107 132.176 404.976 132.176C403.822 132.176 402.914 131.81 402.251 131.077V135.656H400.625V122.49H402.111L402.19 123.545C402.852 122.725 403.772 122.314 404.95 122.314C406.092 122.314 406.995 122.745 407.657 123.606C408.325 124.468 408.659 125.666 408.659 127.201V127.351ZM407.033 127.166C407.033 126.094 406.804 125.247 406.347 124.626C405.89 124.005 405.263 123.694 404.466 123.694C403.482 123.694 402.744 124.131 402.251 125.004V129.548C402.738 130.415 403.482 130.849 404.484 130.849C405.263 130.849 405.881 130.541 406.338 129.926C406.801 129.305 407.033 128.385 407.033 127.166ZM412.939 120.188V122.49H414.714V123.747H412.939V129.645C412.939 130.025 413.018 130.312 413.176 130.506C413.334 130.693 413.604 130.787 413.985 130.787C414.172 130.787 414.43 130.752 414.758 130.682V132C414.331 132.117 413.915 132.176 413.51 132.176C412.784 132.176 412.236 131.956 411.867 131.517C411.498 131.077 411.313 130.453 411.313 129.645V123.747H409.582V122.49H411.313V120.188H412.939ZM418.388 132H416.762V122.49H418.388V132ZM416.63 119.968C416.63 119.704 416.709 119.481 416.868 119.3C417.032 119.118 417.272 119.027 417.588 119.027C417.905 119.027 418.145 119.118 418.309 119.3C418.473 119.481 418.555 119.704 418.555 119.968C418.555 120.231 418.473 120.451 418.309 120.627C418.145 120.803 417.905 120.891 417.588 120.891C417.272 120.891 417.032 120.803 416.868 120.627C416.709 120.451 416.63 120.231 416.63 119.968ZM420.568 127.157C420.568 126.226 420.75 125.388 421.113 124.644C421.482 123.899 421.992 123.325 422.642 122.921C423.298 122.517 424.045 122.314 424.883 122.314C426.178 122.314 427.224 122.763 428.021 123.659C428.824 124.556 429.225 125.748 429.225 127.236V127.351C429.225 128.276 429.046 129.108 428.689 129.847C428.337 130.579 427.831 131.15 427.168 131.561C426.512 131.971 425.756 132.176 424.901 132.176C423.612 132.176 422.566 131.728 421.763 130.831C420.966 129.935 420.568 128.748 420.568 127.271V127.157ZM422.203 127.351C422.203 128.405 422.446 129.252 422.932 129.891C423.424 130.529 424.081 130.849 424.901 130.849C425.727 130.849 426.383 130.526 426.87 129.882C427.356 129.231 427.599 128.323 427.599 127.157C427.599 126.114 427.35 125.271 426.852 124.626C426.36 123.976 425.704 123.65 424.883 123.65C424.081 123.65 423.433 123.97 422.941 124.608C422.449 125.247 422.203 126.161 422.203 127.351ZM432.802 122.49L432.855 123.686C433.582 122.771 434.531 122.314 435.703 122.314C437.712 122.314 438.726 123.448 438.744 125.716V132H437.118V125.707C437.112 125.021 436.954 124.515 436.643 124.187C436.338 123.858 435.861 123.694 435.21 123.694C434.683 123.694 434.22 123.835 433.822 124.116C433.423 124.397 433.113 124.767 432.89 125.224V132H431.264V122.49H432.802ZM450.837 132H449.203V121.163L445.924 122.367V120.891L450.583 119.142H450.837V132Z" fill="#8794BA"/>
<path d="M409.826 213H391.459V210.439L401.162 199.658C402.6 198.028 403.588 196.706 404.127 195.692C404.679 194.665 404.955 193.607 404.955 192.516C404.955 191.052 404.512 189.852 403.626 188.915C402.741 187.979 401.56 187.51 400.084 187.51C398.313 187.51 396.933 188.017 395.945 189.031C394.969 190.032 394.482 191.431 394.482 193.228H390.92C390.92 190.648 391.748 188.562 393.403 186.971C395.072 185.379 397.299 184.584 400.084 184.584C402.689 184.584 404.749 185.27 406.264 186.644C407.778 188.004 408.536 189.82 408.536 192.092C408.536 194.852 406.777 198.137 403.261 201.949L395.752 210.093H409.826V213ZM427.249 200.679C426.504 201.564 425.612 202.277 424.573 202.816C423.546 203.355 422.417 203.624 421.184 203.624C419.567 203.624 418.155 203.226 416.949 202.431C415.755 201.635 414.831 200.518 414.177 199.081C413.522 197.63 413.195 196.032 413.195 194.287C413.195 192.413 413.548 190.725 414.254 189.223C414.972 187.722 415.986 186.573 417.295 185.777C418.605 184.982 420.132 184.584 421.877 184.584C424.65 184.584 426.832 185.623 428.423 187.703C430.028 189.769 430.83 192.593 430.83 196.174V197.213C430.83 202.668 429.752 206.653 427.595 209.169C425.439 211.672 422.185 212.955 417.834 213.019H417.141V210.016H417.892C420.831 209.965 423.09 209.201 424.669 207.725C426.248 206.236 427.108 203.887 427.249 200.679ZM421.762 200.679C422.956 200.679 424.053 200.313 425.054 199.581C426.068 198.85 426.806 197.945 427.268 196.867V195.442C427.268 193.106 426.761 191.206 425.747 189.743C424.733 188.28 423.45 187.549 421.897 187.549C420.331 187.549 419.073 188.152 418.123 189.358C417.173 190.552 416.699 192.131 416.699 194.094C416.699 196.007 417.154 197.585 418.066 198.83C418.99 200.062 420.222 200.679 421.762 200.679ZM435.431 190.359C435.431 188.678 435.964 187.292 437.029 186.201C438.107 185.11 439.487 184.564 441.168 184.564C442.875 184.564 444.255 185.116 445.307 186.22C446.373 187.311 446.905 188.729 446.905 190.475V191.842C446.905 193.536 446.366 194.922 445.288 196C444.223 197.066 442.862 197.598 441.207 197.598C439.538 197.598 438.158 197.066 437.067 196C435.976 194.922 435.431 193.491 435.431 191.707V190.359ZM438.088 191.842C438.088 192.843 438.37 193.671 438.935 194.325C439.5 194.967 440.257 195.288 441.207 195.288C442.118 195.288 442.85 194.973 443.401 194.345C443.966 193.716 444.249 192.856 444.249 191.765V190.359C444.249 189.358 443.973 188.53 443.421 187.876C442.869 187.221 442.118 186.894 441.168 186.894C440.218 186.894 439.468 187.221 438.916 187.876C438.364 188.53 438.088 189.384 438.088 190.436V191.842ZM449.081 206.127C449.081 204.446 449.613 203.066 450.679 201.988C451.757 200.897 453.137 200.351 454.818 200.351C456.499 200.351 457.879 200.89 458.957 201.968C460.035 203.047 460.574 204.478 460.574 206.262V207.629C460.574 209.31 460.035 210.696 458.957 211.787C457.892 212.865 456.525 213.404 454.857 213.404C453.188 213.404 451.808 212.872 450.717 211.806C449.626 210.728 449.081 209.297 449.081 207.513V206.127ZM451.738 207.629C451.738 208.643 452.02 209.477 452.585 210.131C453.149 210.773 453.907 211.094 454.857 211.094C455.781 211.094 456.519 210.78 457.071 210.151C457.622 209.509 457.898 208.643 457.898 207.552V206.127C457.898 205.113 457.616 204.285 457.051 203.643C456.499 203.002 455.755 202.681 454.818 202.681C453.907 202.681 453.162 203.002 452.585 203.643C452.02 204.272 451.738 205.126 451.738 206.204V207.629ZM442.015 210.882L439.994 209.612L453.682 187.703L455.704 188.973L442.015 210.882Z" fill="#0088F0"/>
<path d="M389.929 239.157C389.929 238.226 390.111 237.388 390.474 236.644C390.843 235.899 391.353 235.325 392.003 234.921C392.66 234.517 393.407 234.314 394.245 234.314C395.54 234.314 396.585 234.763 397.382 235.659C398.185 236.556 398.586 237.748 398.586 239.236V239.351C398.586 240.276 398.408 241.108 398.05 241.847C397.699 242.579 397.192 243.15 396.53 243.561C395.874 243.971 395.118 244.176 394.262 244.176C392.973 244.176 391.927 243.728 391.125 242.831C390.328 241.935 389.929 240.748 389.929 239.271V239.157ZM391.564 239.351C391.564 240.405 391.807 241.252 392.293 241.891C392.786 242.529 393.442 242.849 394.262 242.849C395.088 242.849 395.745 242.526 396.231 241.882C396.717 241.231 396.96 240.323 396.96 239.157C396.96 238.114 396.711 237.271 396.213 236.626C395.721 235.976 395.065 235.65 394.245 235.65C393.442 235.65 392.794 235.97 392.302 236.608C391.81 237.247 391.564 238.161 391.564 239.351ZM408.659 239.351C408.659 240.798 408.328 241.964 407.666 242.849C407.003 243.733 406.107 244.176 404.976 244.176C403.822 244.176 402.914 243.81 402.251 243.077V247.656H400.625V234.49H402.111L402.19 235.545C402.852 234.725 403.772 234.314 404.95 234.314C406.092 234.314 406.995 234.745 407.657 235.606C408.325 236.468 408.659 237.666 408.659 239.201V239.351ZM407.033 239.166C407.033 238.094 406.804 237.247 406.347 236.626C405.89 236.005 405.263 235.694 404.466 235.694C403.482 235.694 402.744 236.131 402.251 237.004V241.548C402.738 242.415 403.482 242.849 404.484 242.849C405.263 242.849 405.881 242.541 406.338 241.926C406.801 241.305 407.033 240.385 407.033 239.166ZM412.939 232.188V234.49H414.714V235.747H412.939V241.645C412.939 242.025 413.018 242.312 413.176 242.506C413.334 242.693 413.604 242.787 413.985 242.787C414.172 242.787 414.43 242.752 414.758 242.682V244C414.331 244.117 413.915 244.176 413.51 244.176C412.784 244.176 412.236 243.956 411.867 243.517C411.498 243.077 411.313 242.453 411.313 241.645V235.747H409.582V234.49H411.313V232.188H412.939ZM418.388 244H416.762V234.49H418.388V244ZM416.63 231.968C416.63 231.704 416.709 231.481 416.868 231.3C417.032 231.118 417.272 231.027 417.588 231.027C417.905 231.027 418.145 231.118 418.309 231.3C418.473 231.481 418.555 231.704 418.555 231.968C418.555 232.231 418.473 232.451 418.309 232.627C418.145 232.803 417.905 232.891 417.588 232.891C417.272 232.891 417.032 232.803 416.868 232.627C416.709 232.451 416.63 232.231 416.63 231.968ZM420.568 239.157C420.568 238.226 420.75 237.388 421.113 236.644C421.482 235.899 421.992 235.325 422.642 234.921C423.298 234.517 424.045 234.314 424.883 234.314C426.178 234.314 427.224 234.763 428.021 235.659C428.824 236.556 429.225 237.748 429.225 239.236V239.351C429.225 240.276 429.046 241.108 428.689 241.847C428.337 242.579 427.831 243.15 427.168 243.561C426.512 243.971 425.756 244.176 424.901 244.176C423.612 244.176 422.566 243.728 421.763 242.831C420.966 241.935 420.568 240.748 420.568 239.271V239.157ZM422.203 239.351C422.203 240.405 422.446 241.252 422.932 241.891C423.424 242.529 424.081 242.849 424.901 242.849C425.727 242.849 426.383 242.526 426.87 241.882C427.356 241.231 427.599 240.323 427.599 239.157C427.599 238.114 427.35 237.271 426.852 236.626C426.36 235.976 425.704 235.65 424.883 235.65C424.081 235.65 423.433 235.97 422.941 236.608C422.449 237.247 422.203 238.161 422.203 239.351ZM432.802 234.49L432.855 235.686C433.582 234.771 434.531 234.314 435.703 234.314C437.712 234.314 438.726 235.448 438.744 237.716V244H437.118V237.707C437.112 237.021 436.954 236.515 436.643 236.187C436.338 235.858 435.861 235.694 435.21 235.694C434.683 235.694 434.22 235.835 433.822 236.116C433.423 236.397 433.113 236.767 432.89 237.224V244H431.264V234.49H432.802ZM453.878 244H445.494V242.831L449.923 237.909C450.58 237.165 451.031 236.562 451.277 236.099C451.529 235.63 451.655 235.146 451.655 234.648C451.655 233.98 451.453 233.433 451.048 233.005C450.644 232.577 450.105 232.363 449.431 232.363C448.623 232.363 447.993 232.595 447.542 233.058C447.096 233.515 446.874 234.153 446.874 234.974H445.248C445.248 233.796 445.625 232.844 446.381 232.117C447.143 231.391 448.16 231.027 449.431 231.027C450.621 231.027 451.561 231.341 452.252 231.968C452.944 232.589 453.29 233.418 453.29 234.455C453.29 235.715 452.487 237.215 450.881 238.955L447.454 242.673H453.878V244Z" fill="#8794BA"/>
<path d="M145.766 13H144.676V5.77539L142.491 6.57812V5.59375L145.596 4.42773H145.766V13ZM154.116 6.69531C154.116 7.12109 154.002 7.5 153.776 7.83203C153.553 8.16406 153.25 8.42383 152.868 8.61133C153.313 8.80273 153.665 9.08203 153.922 9.44922C154.184 9.81641 154.315 10.2324 154.315 10.6973C154.315 11.4355 154.065 12.0234 153.565 12.4609C153.069 12.8984 152.415 13.1172 151.602 13.1172C150.782 13.1172 150.124 12.8984 149.627 12.4609C149.135 12.0195 148.889 11.4316 148.889 10.6973C148.889 10.2363 149.014 9.82031 149.264 9.44922C149.518 9.07812 149.868 8.79688 150.313 8.60547C149.934 8.41797 149.635 8.1582 149.417 7.82617C149.198 7.49414 149.088 7.11719 149.088 6.69531C149.088 5.97656 149.319 5.40625 149.78 4.98438C150.241 4.5625 150.848 4.35156 151.602 4.35156C152.352 4.35156 152.958 4.5625 153.418 4.98438C153.883 5.40625 154.116 5.97656 154.116 6.69531ZM153.231 10.6738C153.231 10.1973 153.079 9.80859 152.774 9.50781C152.473 9.20703 152.079 9.05664 151.59 9.05664C151.102 9.05664 150.709 9.20508 150.413 9.50195C150.12 9.79883 149.973 10.1895 149.973 10.6738C149.973 11.1582 150.116 11.5391 150.401 11.8164C150.69 12.0938 151.09 12.2324 151.602 12.2324C152.11 12.2324 152.508 12.0938 152.797 11.8164C153.086 11.5352 153.231 11.1543 153.231 10.6738ZM151.602 5.24219C151.176 5.24219 150.831 5.375 150.565 5.64062C150.303 5.90234 150.172 6.25977 150.172 6.71289C150.172 7.14648 150.301 7.49805 150.559 7.76758C150.821 8.0332 151.168 8.16602 151.602 8.16602C152.036 8.16602 152.381 8.0332 152.639 7.76758C152.901 7.49805 153.032 7.14648 153.032 6.71289C153.032 6.2793 152.897 5.92578 152.627 5.65234C152.358 5.37891 152.016 5.24219 151.602 5.24219ZM158.047 9.81836H155.188V8.93359H158.047V9.81836ZM164.586 13H158.997V12.2207L161.95 8.93945C162.387 8.44336 162.688 8.04102 162.852 7.73242C163.02 7.41992 163.104 7.09766 163.104 6.76562C163.104 6.32031 162.969 5.95508 162.7 5.66992C162.43 5.38477 162.071 5.24219 161.622 5.24219C161.083 5.24219 160.663 5.39648 160.362 5.70508C160.065 6.00977 159.917 6.43555 159.917 6.98242H158.833C158.833 6.19727 159.084 5.5625 159.588 5.07812C160.096 4.59375 160.774 4.35156 161.622 4.35156C162.415 4.35156 163.042 4.56055 163.502 4.97852C163.963 5.39258 164.194 5.94531 164.194 6.63672C164.194 7.47656 163.659 8.47656 162.588 9.63672L160.303 12.1152H164.586V13ZM170.311 10.1348H171.495V11.0195H170.311V13H169.221V11.0195H165.336V10.3809L169.157 4.46875H170.311V10.1348ZM166.567 10.1348H169.221V5.95117L169.092 6.18555L166.567 10.1348Z" fill="#8794BA"/>
<path d="M288.793 91H283.204V90.2207L286.157 86.9395C286.594 86.4434 286.895 86.041 287.059 85.7324C287.227 85.4199 287.311 85.0977 287.311 84.7656C287.311 84.3203 287.176 83.9551 286.907 83.6699C286.637 83.3848 286.278 83.2422 285.829 83.2422C285.29 83.2422 284.87 83.3965 284.569 83.7051C284.272 84.0098 284.124 84.4355 284.124 84.9824H283.04C283.04 84.1973 283.292 83.5625 283.795 83.0781C284.303 82.5938 284.981 82.3516 285.829 82.3516C286.622 82.3516 287.249 82.5605 287.709 82.9785C288.17 83.3926 288.401 83.9453 288.401 84.6367C288.401 85.4766 287.866 86.4766 286.795 87.6367L284.51 90.1152H288.793V91ZM290.44 86.7227L290.874 82.4688H295.245V83.4707H291.793L291.536 85.7969C291.954 85.5508 292.428 85.4277 292.959 85.4277C293.737 85.4277 294.354 85.6855 294.811 86.2012C295.268 86.7129 295.497 87.4062 295.497 88.2812C295.497 89.1602 295.258 89.8535 294.782 90.3613C294.309 90.8652 293.647 91.1172 292.795 91.1172C292.042 91.1172 291.426 90.9082 290.95 90.4902C290.473 90.0723 290.202 89.4941 290.135 88.7559H291.161C291.227 89.2441 291.401 89.6133 291.682 89.8633C291.963 90.1094 292.334 90.2324 292.795 90.2324C293.299 90.2324 293.694 90.0605 293.979 89.7168C294.268 89.373 294.413 88.8984 294.413 88.293C294.413 87.7227 294.256 87.2656 293.944 86.9219C293.635 86.5742 293.223 86.4004 292.708 86.4004C292.235 86.4004 291.864 86.5039 291.594 86.7109L291.307 86.9453L290.44 86.7227ZM299.047 87.8184H296.188V86.9336H299.047V87.8184ZM301.573 86.207H302.387C302.899 86.1992 303.301 86.0645 303.594 85.8027C303.887 85.541 304.034 85.1875 304.034 84.7422C304.034 83.7422 303.536 83.2422 302.54 83.2422C302.071 83.2422 301.696 83.377 301.415 83.6465C301.137 83.9121 300.999 84.2656 300.999 84.707H299.915C299.915 84.0312 300.161 83.4707 300.653 83.0254C301.149 82.5762 301.778 82.3516 302.54 82.3516C303.344 82.3516 303.975 82.5645 304.432 82.9902C304.889 83.416 305.118 84.0078 305.118 84.7656C305.118 85.1367 304.997 85.4961 304.754 85.8438C304.516 86.1914 304.19 86.4512 303.776 86.623C304.245 86.7715 304.606 87.0176 304.86 87.3613C305.118 87.7051 305.247 88.125 305.247 88.6211C305.247 89.3867 304.997 89.9941 304.497 90.4434C303.997 90.8926 303.346 91.1172 302.545 91.1172C301.745 91.1172 301.092 90.9004 300.588 90.4668C300.088 90.0332 299.838 89.4609 299.838 88.75H300.928C300.928 89.1992 301.075 89.5586 301.368 89.8281C301.661 90.0977 302.053 90.2324 302.545 90.2324C303.069 90.2324 303.469 90.0957 303.747 89.8223C304.024 89.5488 304.163 89.1562 304.163 88.6445C304.163 88.1484 304.01 87.7676 303.706 87.502C303.401 87.2363 302.961 87.0996 302.387 87.0918H301.573V86.207ZM311.311 88.1348H312.495V89.0195H311.311V91H310.221V89.0195H306.336V88.3809L310.157 82.4688H311.311V88.1348ZM307.567 88.1348H310.221V83.9512L310.092 84.1855L307.567 88.1348Z" fill="#8794BA"/>
<path d="M284.78 217.207H285.594C286.106 217.199 286.508 217.064 286.801 216.803C287.094 216.541 287.241 216.188 287.241 215.742C287.241 214.742 286.743 214.242 285.747 214.242C285.278 214.242 284.903 214.377 284.622 214.646C284.344 214.912 284.206 215.266 284.206 215.707H283.122C283.122 215.031 283.368 214.471 283.86 214.025C284.356 213.576 284.985 213.352 285.747 213.352C286.551 213.352 287.182 213.564 287.639 213.99C288.096 214.416 288.325 215.008 288.325 215.766C288.325 216.137 288.204 216.496 287.961 216.844C287.723 217.191 287.397 217.451 286.983 217.623C287.452 217.771 287.813 218.018 288.067 218.361C288.325 218.705 288.454 219.125 288.454 219.621C288.454 220.387 288.204 220.994 287.704 221.443C287.204 221.893 286.553 222.117 285.752 222.117C284.952 222.117 284.299 221.9 283.795 221.467C283.295 221.033 283.045 220.461 283.045 219.75H284.135C284.135 220.199 284.282 220.559 284.575 220.828C284.868 221.098 285.26 221.232 285.752 221.232C286.276 221.232 286.676 221.096 286.954 220.822C287.231 220.549 287.37 220.156 287.37 219.645C287.37 219.148 287.217 218.768 286.913 218.502C286.608 218.236 286.168 218.1 285.594 218.092H284.78V217.207ZM290.44 217.723L290.874 213.469H295.245V214.471H291.793L291.536 216.797C291.954 216.551 292.428 216.428 292.959 216.428C293.737 216.428 294.354 216.686 294.811 217.201C295.268 217.713 295.497 218.406 295.497 219.281C295.497 220.16 295.258 220.854 294.782 221.361C294.309 221.865 293.647 222.117 292.795 222.117C292.042 222.117 291.426 221.908 290.95 221.49C290.473 221.072 290.202 220.494 290.135 219.756H291.161C291.227 220.244 291.401 220.613 291.682 220.863C291.963 221.109 292.334 221.232 292.795 221.232C293.299 221.232 293.694 221.061 293.979 220.717C294.268 220.373 294.413 219.898 294.413 219.293C294.413 218.723 294.256 218.266 293.944 217.922C293.635 217.574 293.223 217.4 292.708 217.4C292.235 217.4 291.864 217.504 291.594 217.711L291.307 217.945L290.44 217.723ZM299.047 218.818H296.188V217.934H299.047V218.818ZM304.573 219.135H305.756V220.02H304.573V222H303.483V220.02H299.598V219.381L303.418 213.469H304.573V219.135ZM300.829 219.135H303.483V214.951L303.354 215.186L300.829 219.135ZM311.311 219.135H312.495V220.02H311.311V222H310.221V220.02H306.336V219.381L310.157 213.469H311.311V219.135ZM307.567 219.135H310.221V214.951L310.092 215.186L307.567 219.135Z" fill="#8794BA"/>
<path d="M146.78 304.135H147.963V305.02H146.78V307H145.69V305.02H141.805V304.381L145.625 298.469H146.78V304.135ZM143.036 304.135H145.69V299.951L145.561 300.186L143.036 304.135ZM149.44 302.723L149.874 298.469H154.245V299.471H150.793L150.536 301.797C150.954 301.551 151.428 301.428 151.959 301.428C152.737 301.428 153.354 301.686 153.811 302.201C154.268 302.713 154.497 303.406 154.497 304.281C154.497 305.16 154.258 305.854 153.782 306.361C153.309 306.865 152.647 307.117 151.795 307.117C151.042 307.117 150.426 306.908 149.95 306.49C149.473 306.072 149.202 305.494 149.135 304.756H150.161C150.227 305.244 150.401 305.613 150.682 305.863C150.963 306.109 151.334 306.232 151.795 306.232C152.299 306.232 152.694 306.061 152.979 305.717C153.268 305.373 153.413 304.898 153.413 304.293C153.413 303.723 153.256 303.266 152.944 302.922C152.635 302.574 152.223 302.4 151.708 302.4C151.235 302.4 150.864 302.504 150.594 302.711L150.307 302.945L149.44 302.723ZM158.047 303.818H155.188V302.934H158.047V303.818ZM159.495 302.723L159.928 298.469H164.299V299.471H160.848L160.59 301.797C161.008 301.551 161.483 301.428 162.014 301.428C162.792 301.428 163.409 301.686 163.866 302.201C164.323 302.713 164.551 303.406 164.551 304.281C164.551 305.16 164.313 305.854 163.836 306.361C163.364 306.865 162.702 307.117 161.85 307.117C161.096 307.117 160.481 306.908 160.004 306.49C159.528 306.072 159.256 305.494 159.19 304.756H160.215C160.282 305.244 160.456 305.613 160.737 305.863C161.018 306.109 161.389 306.232 161.85 306.232C162.354 306.232 162.749 306.061 163.034 305.717C163.323 305.373 163.467 304.898 163.467 304.293C163.467 303.723 163.311 303.266 162.999 302.922C162.69 302.574 162.278 302.4 161.762 302.4C161.29 302.4 160.918 302.504 160.649 302.711L160.362 302.945L159.495 302.723ZM170.311 304.135H171.495V305.02H170.311V307H169.221V305.02H165.336V304.381L169.157 298.469H170.311V304.135ZM166.567 304.135H169.221V299.951L169.092 300.186L166.567 304.135Z" fill="#8794BA"/>
<path d="M1.70166 217.723L2.13525 213.469H6.50635V214.471H3.05518L2.79736 216.797C3.21533 216.551 3.68994 216.428 4.22119 216.428C4.99854 216.428 5.61572 216.686 6.07275 217.201C6.52979 217.713 6.7583 218.406 6.7583 219.281C6.7583 220.16 6.52002 220.854 6.04346 221.361C5.5708 221.865 4.90869 222.117 4.05713 222.117C3.30322 222.117 2.68799 221.908 2.21143 221.49C1.73486 221.072 1.46338 220.494 1.39697 219.756H2.42236C2.48877 220.244 2.6626 220.613 2.94385 220.863C3.2251 221.109 3.59619 221.232 4.05713 221.232C4.56104 221.232 4.95557 221.061 5.24072 220.717C5.52979 220.373 5.67432 219.898 5.67432 219.293C5.67432 218.723 5.51807 218.266 5.20557 217.922C4.89697 217.574 4.48486 217.4 3.96924 217.4C3.49658 217.4 3.12549 217.504 2.85596 217.711L2.56885 217.945L1.70166 217.723ZM8.43994 217.723L8.87354 213.469H13.2446V214.471H9.79346L9.53564 216.797C9.95361 216.551 10.4282 216.428 10.9595 216.428C11.7368 216.428 12.354 216.686 12.811 217.201C13.2681 217.713 13.4966 218.406 13.4966 219.281C13.4966 220.16 13.2583 220.854 12.7817 221.361C12.3091 221.865 11.647 222.117 10.7954 222.117C10.0415 222.117 9.42627 221.908 8.94971 221.49C8.47314 221.072 8.20166 220.494 8.13525 219.756H9.16064C9.22705 220.244 9.40088 220.613 9.68213 220.863C9.96338 221.109 10.3345 221.232 10.7954 221.232C11.2993 221.232 11.6938 221.061 11.979 220.717C12.2681 220.373 12.4126 219.898 12.4126 219.293C12.4126 218.723 12.2563 218.266 11.9438 217.922C11.6353 217.574 11.2231 217.4 10.7075 217.4C10.2349 217.4 9.86377 217.504 9.59424 217.711L9.30713 217.945L8.43994 217.723ZM17.0474 218.818H14.188V217.934H17.0474V218.818ZM22.2505 213.463V214.383H22.0513C21.2075 214.398 20.5356 214.648 20.0356 215.133C19.5356 215.617 19.2466 216.299 19.1685 217.178C19.6177 216.662 20.231 216.404 21.0083 216.404C21.7505 216.404 22.3423 216.666 22.7837 217.189C23.229 217.713 23.4517 218.389 23.4517 219.217C23.4517 220.096 23.2114 220.799 22.731 221.326C22.2544 221.854 21.6138 222.117 20.8091 222.117C19.9927 222.117 19.3306 221.805 18.8228 221.18C18.3149 220.551 18.061 219.742 18.061 218.754V218.338C18.061 216.768 18.395 215.568 19.063 214.74C19.7349 213.908 20.7329 213.482 22.0571 213.463H22.2505ZM20.8267 217.307C20.4556 217.307 20.1138 217.418 19.8013 217.641C19.4888 217.863 19.272 218.143 19.1509 218.479V218.877C19.1509 219.58 19.3091 220.146 19.6255 220.576C19.9419 221.006 20.3364 221.221 20.8091 221.221C21.2974 221.221 21.6802 221.041 21.9575 220.682C22.2388 220.322 22.3794 219.852 22.3794 219.27C22.3794 218.684 22.2368 218.211 21.9517 217.852C21.6704 217.488 21.2954 217.307 20.8267 217.307ZM29.311 219.135H30.4946V220.02H29.311V222H28.2212V220.02H24.3364V219.381L28.1567 213.469H29.311V219.135ZM25.5669 219.135H28.2212V214.951L28.0923 215.186L25.5669 219.135Z" fill="#8794BA"/>
<path d="M10.4497 82.4629V83.3828H10.2505C9.40674 83.3984 8.73486 83.6484 8.23486 84.1328C7.73486 84.6172 7.4458 85.2988 7.36768 86.1777C7.81689 85.6621 8.43018 85.4043 9.20752 85.4043C9.94971 85.4043 10.5415 85.666 10.9829 86.1895C11.4282 86.7129 11.6509 87.3887 11.6509 88.2168C11.6509 89.0957 11.4106 89.7988 10.9302 90.3262C10.4536 90.8535 9.81299 91.1172 9.0083 91.1172C8.19189 91.1172 7.52979 90.8047 7.02197 90.1797C6.51416 89.5508 6.26025 88.7422 6.26025 87.7539V87.3379C6.26025 85.7676 6.59424 84.5684 7.26221 83.7402C7.93408 82.9082 8.93213 82.4824 10.2563 82.4629H10.4497ZM9.02588 86.3066C8.65479 86.3066 8.31299 86.418 8.00049 86.6406C7.68799 86.8633 7.47119 87.1426 7.3501 87.4785V87.877C7.3501 88.5801 7.5083 89.1465 7.82471 89.5762C8.14111 90.0059 8.53564 90.2207 9.0083 90.2207C9.49658 90.2207 9.87939 90.041 10.1567 89.6816C10.438 89.3223 10.5786 88.8516 10.5786 88.2695C10.5786 87.6836 10.436 87.2109 10.1509 86.8516C9.86963 86.4883 9.49463 86.3066 9.02588 86.3066ZM13.4321 86.7227L13.8657 82.4688H18.2368V83.4707H14.7856L14.5278 85.7969C14.9458 85.5508 15.4204 85.4277 15.9517 85.4277C16.729 85.4277 17.3462 85.6855 17.8032 86.2012C18.2603 86.7129 18.4888 87.4062 18.4888 88.2812C18.4888 89.1602 18.2505 89.8535 17.7739 90.3613C17.3013 90.8652 16.6392 91.1172 15.7876 91.1172C15.0337 91.1172 14.4185 90.9082 13.9419 90.4902C13.4653 90.0723 13.1938 89.4941 13.1274 88.7559H14.1528C14.2192 89.2441 14.3931 89.6133 14.6743 89.8633C14.9556 90.1094 15.3267 90.2324 15.7876 90.2324C16.2915 90.2324 16.686 90.0605 16.9712 89.7168C17.2603 89.373 17.4048 88.8984 17.4048 88.293C17.4048 87.7227 17.2485 87.2656 16.936 86.9219C16.6274 86.5742 16.2153 86.4004 15.6997 86.4004C15.2271 86.4004 14.856 86.5039 14.5864 86.7109L14.2993 86.9453L13.4321 86.7227ZM22.8892 86.4238H25.2681V87.4492H22.8892V90.1445H21.7993V87.4492H19.4204V86.4238H21.7993V83.9336H22.8892V86.4238Z" fill="#8794BA"/>
</svg>
