<svg width="484" height="271" viewBox="0 0 484 271" fill="none" xmlns="http://www.w3.org/2000/svg">
<rect x="42" width="1" height="271" fill="#EEEEF7"/>
<rect x="105" width="1" height="271" fill="#EEEEF7"/>
<rect x="168" width="1" height="271" fill="#EEEEF7"/>
<rect x="231" width="1" height="271" fill="#EEEEF7"/>
<rect x="294" width="1" height="271" fill="#EEEEF7"/>
<rect x="357" width="1" height="271" fill="#EEEEF7"/>
<rect x="420" width="1" height="271" fill="#EEEEF7"/>
<rect x="483" width="1" height="271" fill="#EEEEF7"/>
<path d="M1.9375 20.7227L2.37109 16.4688H6.74219V17.4707H3.29102L3.0332 19.7969C3.45117 19.5508 3.92578 19.4277 4.45703 19.4277C5.23438 19.4277 5.85156 19.6855 6.30859 20.2012C6.76562 20.7129 6.99414 21.4062 6.99414 22.2812C6.99414 23.1602 6.75586 23.8535 6.2793 24.3613C5.80664 24.8652 5.14453 25.1172 4.29297 25.1172C3.53906 25.1172 2.92383 24.9082 2.44727 24.4902C1.9707 24.0723 1.69922 23.4941 1.63281 22.7559H2.6582C2.72461 23.2441 2.89844 23.6133 3.17969 23.8633C3.46094 24.1094 3.83203 24.2324 4.29297 24.2324C4.79688 24.2324 5.19141 24.0605 5.47656 23.7168C5.76562 23.373 5.91016 22.8984 5.91016 22.293C5.91016 21.7227 5.75391 21.2656 5.44141 20.9219C5.13281 20.5742 4.7207 20.4004 4.20508 20.4004C3.73242 20.4004 3.36133 20.5039 3.0918 20.7109L2.80469 20.9453L1.9375 20.7227ZM12.7539 22.1348H13.9375V23.0195H12.7539V25H11.6641V23.0195H7.7793V22.3809L11.5996 16.4688H12.7539V22.1348ZM9.00977 22.1348H11.6641V17.9512L11.5352 18.1855L9.00977 22.1348ZM17.2832 21.8184H14.4238V20.9336H17.2832V21.8184ZM22.4863 16.4629V17.3828H22.2871C21.4434 17.3984 20.7715 17.6484 20.2715 18.1328C19.7715 18.6172 19.4824 19.2988 19.4043 20.1777C19.8535 19.6621 20.4668 19.4043 21.2441 19.4043C21.9863 19.4043 22.5781 19.666 23.0195 20.1895C23.4648 20.7129 23.6875 21.3887 23.6875 22.2168C23.6875 23.0957 23.4473 23.7988 22.9668 24.3262C22.4902 24.8535 21.8496 25.1172 21.0449 25.1172C20.2285 25.1172 19.5664 24.8047 19.0586 24.1797C18.5508 23.5508 18.2969 22.7422 18.2969 21.7539V21.3379C18.2969 19.7676 18.6309 18.5684 19.2988 17.7402C19.9707 16.9082 20.9688 16.4824 22.293 16.4629H22.4863ZM21.0625 20.3066C20.6914 20.3066 20.3496 20.418 20.0371 20.6406C19.7246 20.8633 19.5078 21.1426 19.3867 21.4785V21.877C19.3867 22.5801 19.5449 23.1465 19.8613 23.5762C20.1777 24.0059 20.5723 24.2207 21.0449 24.2207C21.5332 24.2207 21.916 24.041 22.1934 23.6816C22.4746 23.3223 22.6152 22.8516 22.6152 22.2695C22.6152 21.6836 22.4727 21.2109 22.1875 20.8516C21.9062 20.4883 21.5312 20.3066 21.0625 20.3066ZM25.4688 20.7227L25.9023 16.4688H30.2734V17.4707H26.8223L26.5645 19.7969C26.9824 19.5508 27.457 19.4277 27.9883 19.4277C28.7656 19.4277 29.3828 19.6855 29.8398 20.2012C30.2969 20.7129 30.5254 21.4062 30.5254 22.2812C30.5254 23.1602 30.2871 23.8535 29.8105 24.3613C29.3379 24.8652 28.6758 25.1172 27.8242 25.1172C27.0703 25.1172 26.4551 24.9082 25.9785 24.4902C25.502 24.0723 25.2305 23.4941 25.1641 22.7559H26.1895C26.2559 23.2441 26.4297 23.6133 26.7109 23.8633C26.9922 24.1094 27.3633 24.2324 27.8242 24.2324C28.3281 24.2324 28.7227 24.0605 29.0078 23.7168C29.2969 23.373 29.4414 22.8984 29.4414 22.293C29.4414 21.7227 29.2852 21.2656 28.9727 20.9219C28.6641 20.5742 28.252 20.4004 27.7363 20.4004C27.2637 20.4004 26.8926 20.5039 26.623 20.7109L26.3359 20.9453L25.4688 20.7227Z" fill="#8794BA"/>
<path d="M6.01562 78.1348H7.19922V79.0195H6.01562V81H4.92578V79.0195H1.04102V78.3809L4.86133 72.4688H6.01562V78.1348ZM2.27148 78.1348H4.92578V73.9512L4.79688 74.1855L2.27148 78.1348ZM8.67578 76.7227L9.10938 72.4688H13.4805V73.4707H10.0293L9.77148 75.7969C10.1895 75.5508 10.6641 75.4277 11.1953 75.4277C11.9727 75.4277 12.5898 75.6855 13.0469 76.2012C13.5039 76.7129 13.7324 77.4062 13.7324 78.2812C13.7324 79.1602 13.4941 79.8535 13.0176 80.3613C12.5449 80.8652 11.8828 81.1172 11.0312 81.1172C10.2773 81.1172 9.66211 80.9082 9.18555 80.4902C8.70898 80.0723 8.4375 79.4941 8.37109 78.7559H9.39648C9.46289 79.2441 9.63672 79.6133 9.91797 79.8633C10.1992 80.1094 10.5703 80.2324 11.0312 80.2324C11.5352 80.2324 11.9297 80.0605 12.2148 79.7168C12.5039 79.373 12.6484 78.8984 12.6484 78.293C12.6484 77.7227 12.4922 77.2656 12.1797 76.9219C11.8711 76.5742 11.459 76.4004 10.9434 76.4004C10.4707 76.4004 10.0996 76.5039 9.83008 76.7109L9.54297 76.9453L8.67578 76.7227ZM17.2832 77.8184H14.4238V76.9336H17.2832V77.8184ZM18.7305 76.7227L19.1641 72.4688H23.5352V73.4707H20.084L19.8262 75.7969C20.2441 75.5508 20.7188 75.4277 21.25 75.4277C22.0273 75.4277 22.6445 75.6855 23.1016 76.2012C23.5586 76.7129 23.7871 77.4062 23.7871 78.2812C23.7871 79.1602 23.5488 79.8535 23.0723 80.3613C22.5996 80.8652 21.9375 81.1172 21.0859 81.1172C20.332 81.1172 19.7168 80.9082 19.2402 80.4902C18.7637 80.0723 18.4922 79.4941 18.4258 78.7559H19.4512C19.5176 79.2441 19.6914 79.6133 19.9727 79.8633C20.2539 80.1094 20.625 80.2324 21.0859 80.2324C21.5898 80.2324 21.9844 80.0605 22.2695 79.7168C22.5586 79.373 22.7031 78.8984 22.7031 78.293C22.7031 77.7227 22.5469 77.2656 22.2344 76.9219C21.9258 76.5742 21.5137 76.4004 20.998 76.4004C20.5254 76.4004 20.1543 76.5039 19.8848 76.7109L19.5977 76.9453L18.7305 76.7227ZM29.5469 78.1348H30.7305V79.0195H29.5469V81H28.457V79.0195H24.5723V78.3809L28.3926 72.4688H29.5469V78.1348ZM25.8027 78.1348H28.457V73.9512L28.3281 74.1855L25.8027 78.1348Z" fill="#8794BA"/>
<path d="M3.01562 132.207H3.83008C4.3418 132.199 4.74414 132.064 5.03711 131.803C5.33008 131.541 5.47656 131.188 5.47656 130.742C5.47656 129.742 4.97852 129.242 3.98242 129.242C3.51367 129.242 3.13867 129.377 2.85742 129.646C2.58008 129.912 2.44141 130.266 2.44141 130.707H1.35742C1.35742 130.031 1.60352 129.471 2.0957 129.025C2.5918 128.576 3.2207 128.352 3.98242 128.352C4.78711 128.352 5.41797 128.564 5.875 128.99C6.33203 129.416 6.56055 130.008 6.56055 130.766C6.56055 131.137 6.43945 131.496 6.19727 131.844C5.95898 132.191 5.63281 132.451 5.21875 132.623C5.6875 132.771 6.04883 133.018 6.30273 133.361C6.56055 133.705 6.68945 134.125 6.68945 134.621C6.68945 135.387 6.43945 135.994 5.93945 136.443C5.43945 136.893 4.78906 137.117 3.98828 137.117C3.1875 137.117 2.53516 136.9 2.03125 136.467C1.53125 136.033 1.28125 135.461 1.28125 134.75H2.37109C2.37109 135.199 2.51758 135.559 2.81055 135.828C3.10352 136.098 3.49609 136.232 3.98828 136.232C4.51172 136.232 4.91211 136.096 5.18945 135.822C5.4668 135.549 5.60547 135.156 5.60547 134.645C5.60547 134.148 5.45312 133.768 5.14844 133.502C4.84375 133.236 4.4043 133.1 3.83008 133.092H3.01562V132.207ZM8.67578 132.723L9.10938 128.469H13.4805V129.471H10.0293L9.77148 131.797C10.1895 131.551 10.6641 131.428 11.1953 131.428C11.9727 131.428 12.5898 131.686 13.0469 132.201C13.5039 132.713 13.7324 133.406 13.7324 134.281C13.7324 135.16 13.4941 135.854 13.0176 136.361C12.5449 136.865 11.8828 137.117 11.0312 137.117C10.2773 137.117 9.66211 136.908 9.18555 136.49C8.70898 136.072 8.4375 135.494 8.37109 134.756H9.39648C9.46289 135.244 9.63672 135.613 9.91797 135.863C10.1992 136.109 10.5703 136.232 11.0312 136.232C11.5352 136.232 11.9297 136.061 12.2148 135.717C12.5039 135.373 12.6484 134.898 12.6484 134.293C12.6484 133.723 12.4922 133.266 12.1797 132.922C11.8711 132.574 11.459 132.4 10.9434 132.4C10.4707 132.4 10.0996 132.504 9.83008 132.711L9.54297 132.945L8.67578 132.723ZM17.2832 133.818H14.4238V132.934H17.2832V133.818ZM22.8086 134.135H23.9922V135.02H22.8086V137H21.7188V135.02H17.834V134.381L21.6543 128.469H22.8086V134.135ZM19.0645 134.135H21.7188V129.951L21.5898 130.186L19.0645 134.135ZM29.5469 134.135H30.7305V135.02H29.5469V137H28.457V135.02H24.5723V134.381L28.3926 128.469H29.5469V134.135ZM25.8027 134.135H28.457V129.951L28.3281 130.186L25.8027 134.135Z" fill="#8794BA"/>
<path d="M7.0293 193H1.43945V192.221L4.39258 188.939C4.83008 188.443 5.13086 188.041 5.29492 187.732C5.46289 187.42 5.54688 187.098 5.54688 186.766C5.54688 186.32 5.41211 185.955 5.14258 185.67C4.87305 185.385 4.51367 185.242 4.06445 185.242C3.52539 185.242 3.10547 185.396 2.80469 185.705C2.50781 186.01 2.35938 186.436 2.35938 186.982H1.27539C1.27539 186.197 1.52734 185.562 2.03125 185.078C2.53906 184.594 3.2168 184.352 4.06445 184.352C4.85742 184.352 5.48438 184.561 5.94531 184.979C6.40625 185.393 6.63672 185.945 6.63672 186.637C6.63672 187.477 6.10156 188.477 5.03125 189.637L2.74609 192.115H7.0293V193ZM8.67578 188.723L9.10938 184.469H13.4805V185.471H10.0293L9.77148 187.797C10.1895 187.551 10.6641 187.428 11.1953 187.428C11.9727 187.428 12.5898 187.686 13.0469 188.201C13.5039 188.713 13.7324 189.406 13.7324 190.281C13.7324 191.16 13.4941 191.854 13.0176 192.361C12.5449 192.865 11.8828 193.117 11.0312 193.117C10.2773 193.117 9.66211 192.908 9.18555 192.49C8.70898 192.072 8.4375 191.494 8.37109 190.756H9.39648C9.46289 191.244 9.63672 191.613 9.91797 191.863C10.1992 192.109 10.5703 192.232 11.0312 192.232C11.5352 192.232 11.9297 192.061 12.2148 191.717C12.5039 191.373 12.6484 190.898 12.6484 190.293C12.6484 189.723 12.4922 189.266 12.1797 188.922C11.8711 188.574 11.459 188.4 10.9434 188.4C10.4707 188.4 10.0996 188.504 9.83008 188.711L9.54297 188.945L8.67578 188.723ZM17.2832 189.818H14.4238V188.934H17.2832V189.818ZM19.8086 188.207H20.623C21.1348 188.199 21.5371 188.064 21.8301 187.803C22.123 187.541 22.2695 187.188 22.2695 186.742C22.2695 185.742 21.7715 185.242 20.7754 185.242C20.3066 185.242 19.9316 185.377 19.6504 185.646C19.373 185.912 19.2344 186.266 19.2344 186.707H18.1504C18.1504 186.031 18.3965 185.471 18.8887 185.025C19.3848 184.576 20.0137 184.352 20.7754 184.352C21.5801 184.352 22.2109 184.564 22.668 184.99C23.125 185.416 23.3535 186.008 23.3535 186.766C23.3535 187.137 23.2324 187.496 22.9902 187.844C22.752 188.191 22.4258 188.451 22.0117 188.623C22.4805 188.771 22.8418 189.018 23.0957 189.361C23.3535 189.705 23.4824 190.125 23.4824 190.621C23.4824 191.387 23.2324 191.994 22.7324 192.443C22.2324 192.893 21.582 193.117 20.7812 193.117C19.9805 193.117 19.3281 192.9 18.8242 192.467C18.3242 192.033 18.0742 191.461 18.0742 190.75H19.1641C19.1641 191.199 19.3105 191.559 19.6035 191.828C19.8965 192.098 20.2891 192.232 20.7812 192.232C21.3047 192.232 21.7051 192.096 21.9824 191.822C22.2598 191.549 22.3984 191.156 22.3984 190.645C22.3984 190.148 22.2461 189.768 21.9414 189.502C21.6367 189.236 21.1973 189.1 20.623 189.092H19.8086V188.207ZM29.5469 190.135H30.7305V191.02H29.5469V193H28.457V191.02H24.5723V190.381L28.3926 184.469H29.5469V190.135ZM25.8027 190.135H28.457V185.951L28.3281 186.186L25.8027 190.135Z" fill="#8794BA"/>
<path d="M5.00195 249H3.91211V241.775L1.72656 242.578V241.594L4.83203 240.428H5.00195V249ZM13.3516 242.695C13.3516 243.121 13.2383 243.5 13.0117 243.832C12.7891 244.164 12.4863 244.424 12.1035 244.611C12.5488 244.803 12.9004 245.082 13.1582 245.449C13.4199 245.816 13.5508 246.232 13.5508 246.697C13.5508 247.436 13.3008 248.023 12.8008 248.461C12.3047 248.898 11.6504 249.117 10.8379 249.117C10.0176 249.117 9.35938 248.898 8.86328 248.461C8.37109 248.02 8.125 247.432 8.125 246.697C8.125 246.236 8.25 245.82 8.5 245.449C8.75391 245.078 9.10352 244.797 9.54883 244.605C9.16992 244.418 8.87109 244.158 8.65234 243.826C8.43359 243.494 8.32422 243.117 8.32422 242.695C8.32422 241.977 8.55469 241.406 9.01562 240.984C9.47656 240.562 10.084 240.352 10.8379 240.352C11.5879 240.352 12.1934 240.562 12.6543 240.984C13.1191 241.406 13.3516 241.977 13.3516 242.695ZM12.4668 246.674C12.4668 246.197 12.3145 245.809 12.0098 245.508C11.709 245.207 11.3145 245.057 10.8262 245.057C10.3379 245.057 9.94531 245.205 9.64844 245.502C9.35547 245.799 9.20898 246.189 9.20898 246.674C9.20898 247.158 9.35156 247.539 9.63672 247.816C9.92578 248.094 10.3262 248.232 10.8379 248.232C11.3457 248.232 11.7441 248.094 12.0332 247.816C12.3223 247.535 12.4668 247.154 12.4668 246.674ZM10.8379 241.242C10.4121 241.242 10.0664 241.375 9.80078 241.641C9.53906 241.902 9.4082 242.26 9.4082 242.713C9.4082 243.146 9.53711 243.498 9.79492 243.768C10.0566 244.033 10.4043 244.166 10.8379 244.166C11.2715 244.166 11.6172 244.033 11.875 243.768C12.1367 243.498 12.2676 243.146 12.2676 242.713C12.2676 242.279 12.1328 241.926 11.8633 241.652C11.5938 241.379 11.252 241.242 10.8379 241.242ZM17.2832 245.818H14.4238V244.934H17.2832V245.818ZM23.8223 249H18.2324V248.221L21.1855 244.939C21.623 244.443 21.9238 244.041 22.0879 243.732C22.2559 243.42 22.3398 243.098 22.3398 242.766C22.3398 242.32 22.2051 241.955 21.9355 241.67C21.666 241.385 21.3066 241.242 20.8574 241.242C20.3184 241.242 19.8984 241.396 19.5977 241.705C19.3008 242.01 19.1523 242.436 19.1523 242.982H18.0684C18.0684 242.197 18.3203 241.562 18.8242 241.078C19.332 240.594 20.0098 240.352 20.8574 240.352C21.6504 240.352 22.2773 240.561 22.7383 240.979C23.1992 241.393 23.4297 241.945 23.4297 242.637C23.4297 243.477 22.8945 244.477 21.8242 245.637L19.5391 248.115H23.8223V249ZM29.5469 246.135H30.7305V247.02H29.5469V249H28.457V247.02H24.5723V246.381L28.3926 240.469H29.5469V246.135ZM25.8027 246.135H28.457V241.951L28.3281 242.186L25.8027 246.135Z" fill="#8794BA"/>
<path d="M42 7H298.5C301.538 7 304 9.46243 304 12.5C304 15.5376 301.538 18 298.5 18H42V7Z" fill="#EF2A82"/>
<path d="M42 64H211.5C214.538 64 217 66.4624 217 69.5C217 72.5376 214.538 75 211.5 75H42V64Z" fill="#EF2A82"/>
<path d="M42 121H52.5C55.5376 121 58 123.462 58 126.5C58 129.538 55.5376 132 52.5 132H42V121Z" fill="#EF2A82"/>
<path d="M42 178H84.5C87.5376 178 90 180.462 90 183.5C90 186.538 87.5376 189 84.5 189H42V178Z" fill="#EF2A82"/>
<path d="M42 235H244.5C247.538 235 250 237.462 250 240.5C250 243.538 247.538 246 244.5 246H42V235Z" fill="#EF2A82"/>
<path d="M42 21H184.5C187.538 21 190 23.4624 190 26.5C190 29.5376 187.538 32 184.5 32H42V21Z" fill="#0088F0"/>
<path d="M42 78H244.5C247.538 78 250 80.4624 250 83.5C250 86.5376 247.538 89 244.5 89H42V78Z" fill="#0088F0"/>
<path d="M42 135H84.5C87.5376 135 90 137.462 90 140.5C90 143.538 87.5376 146 84.5 146H42V135Z" fill="#0088F0"/>
<path d="M42 192H375.5C378.538 192 381 194.462 381 197.5C381 200.538 378.538 203 375.5 203H42V192Z" fill="#0088F0"/>
<path d="M42 249H432.5C435.538 249 438 251.462 438 254.5C438 257.538 435.538 260 432.5 260H42V249Z" fill="#0088F0"/>
</svg>
